<svg xmlns="http://www.w3.org/2000/svg" width="199.357" height="47.5" viewBox="0 0 199.357 47.5">
  <g id="Bucholdtzdk" transform="translate(-12.369 -11.541)">
    <g id="Group_9" data-name="Group 9" transform="translate(12.369 30.639)">
      <path id="Path_224" data-name="Path 224" d="M28.824,67.57A7.021,7.021,0,0,1,30.136,72a6.973,6.973,0,0,1-2.109,5.55,7.709,7.709,0,0,1-5.236,1.815H13.416a1,1,0,0,1-.753-.324,1.162,1.162,0,0,1-.294-.813V54.017a1.177,1.177,0,0,1,.314-.818,1,1,0,0,1,.753-.319h9.22a6.013,6.013,0,0,1,4.582,1.74,6.686,6.686,0,0,1,1.66,4.772,7.13,7.13,0,0,1-.908,3.6A5.3,5.3,0,0,1,25.409,65.3a6.353,6.353,0,0,1,3.416,2.269Zm-3.3-11.264a4.159,4.159,0,0,0-3.156-1.192H14.6v9.474h7.774a4.154,4.154,0,0,0,3.087-1.321,5.264,5.264,0,0,0,1.187-3.685A4.573,4.573,0,0,0,25.528,56.305Zm.942,19.572a4.916,4.916,0,0,0,1.446-3.864,4.866,4.866,0,0,0-1.5-3.9,5.729,5.729,0,0,0-3.82-1.252h-8v10.3h8.088a5.485,5.485,0,0,0,3.785-1.286Z" transform="translate(-12.369 -51.364)" fill="#fff" opacity="0.5"/>
      <path id="Path_225" data-name="Path 225" d="M70.876,67.782a1.182,1.182,0,0,1,.294.818V79.275a7.883,7.883,0,0,1-1.915,5.7,7.051,7.051,0,0,1-5.3,1.995,6.909,6.909,0,0,1-5.246-1.995,7.849,7.849,0,0,1-1.88-5.7V68.6a1.182,1.182,0,0,1,.294-.818,1.042,1.042,0,0,1,1.5,0,1.162,1.162,0,0,1,.289.818V79.275a5.868,5.868,0,0,0,1.326,4.149,4.842,4.842,0,0,0,3.73,1.421,4.963,4.963,0,0,0,3.785-1.421,5.8,5.8,0,0,0,1.341-4.149V68.6a1.162,1.162,0,0,1,.289-.818,1.042,1.042,0,0,1,1.5,0Z" transform="translate(-34.659 -58.677)" fill="#fff" opacity="0.5"/>
      <path id="Path_226" data-name="Path 226" d="M106.206,66.713a6.407,6.407,0,0,1,2.269,1.077,1.915,1.915,0,0,1,.853,1.5,1.232,1.232,0,0,1-.259.758.793.793,0,0,1-.648.344,1.022,1.022,0,0,1-.573-.155,2.8,2.8,0,0,1-.5-.454,3.366,3.366,0,0,0-.868-.718,5.39,5.39,0,0,0-1.376-.439,9.708,9.708,0,0,0-1.83-.17,6.158,6.158,0,0,0-3.49,1.062,7.305,7.305,0,0,0-2.493,2.877,8.876,8.876,0,0,0-.908,3.989,9.37,9.37,0,0,0,.873,4.089,7.041,7.041,0,0,0,2.423,2.862,6.208,6.208,0,0,0,3.54,1.042,7.235,7.235,0,0,0,1.995-.229,7.091,7.091,0,0,0,1.5-.643,7.614,7.614,0,0,0,.833-.683,3.845,3.845,0,0,1,.5-.4.868.868,0,0,1,.454-.13.833.833,0,0,1,.663.284,1.082,1.082,0,0,1,.244.738,2,2,0,0,1-.838,1.381,7.09,7.09,0,0,1-2.3,1.272,9.584,9.584,0,0,1-3.241.529,8.073,8.073,0,0,1-4.533-1.306,8.7,8.7,0,0,1-3.087-3.615,11.932,11.932,0,0,1-1.1-5.191,11.359,11.359,0,0,1,1.117-5.056,9.14,9.14,0,0,1,3.136-3.655,8.1,8.1,0,0,1,4.637-1.361A11.009,11.009,0,0,1,106.206,66.713Z" transform="translate(-53.449 -58.097)" fill="#fff" opacity="0.5"/>
      <path id="Path_227" data-name="Path 227" d="M145.339,60.5a9.134,9.134,0,0,1,1.536,5.485V76.7a1.162,1.162,0,0,1-.294.813,1.032,1.032,0,0,1-1.5,0,1.142,1.142,0,0,1-.294-.813V66.014a6.8,6.8,0,0,0-1.082-3.989,3.85,3.85,0,0,0-3.381-1.536,5.485,5.485,0,0,0-2.772.758,6.033,6.033,0,0,0-2.109,2.024,5.056,5.056,0,0,0-.8,2.747V76.734a1.162,1.162,0,0,1-.294.813,1.032,1.032,0,0,1-1.5,0,1.162,1.162,0,0,1-.294-.813V50.98a1.182,1.182,0,0,1,.294-.818,1.042,1.042,0,0,1,1.5,0,1.182,1.182,0,0,1,.294.818V62.074a7.57,7.57,0,0,1,2.623-2.678,6.353,6.353,0,0,1,3.416-1.042A5.368,5.368,0,0,1,145.339,60.5Z" transform="translate(-72.627 -49.843)" fill="#fff" opacity="0.5"/>
      <path id="Path_228" data-name="Path 228" d="M186.375,81.6a8.976,8.976,0,0,1-3.176,3.615,8.387,8.387,0,0,1-8.975,0,8.926,8.926,0,0,1-3.171-3.615,12.092,12.092,0,0,1,0-10.3,9.015,9.015,0,0,1,3.156-3.625,8.282,8.282,0,0,1,8.975,0,9.065,9.065,0,0,1,3.176,3.635,12.142,12.142,0,0,1,0,10.3Zm-1.815-9.245a6.981,6.981,0,0,0-2.423-2.857,6.151,6.151,0,0,0-6.851,0,7.131,7.131,0,0,0-2.418,2.857,9.205,9.205,0,0,0-.893,4.094,9.09,9.09,0,0,0,.893,4.049,7.145,7.145,0,0,0,2.418,2.862,5.984,5.984,0,0,0,3.421,1.042,6.128,6.128,0,0,0,3.431-1,6.881,6.881,0,0,0,2.423-2.842,10.028,10.028,0,0,0,0-8.183Z" transform="translate(-91.349 -58.118)" fill="#fff" opacity="0.5"/>
      <path id="Path_229" data-name="Path 229" d="M216.059,77.542a1.032,1.032,0,0,1-1.5,0,1.162,1.162,0,0,1-.294-.813V50.98a1.182,1.182,0,0,1,.294-.818,1.042,1.042,0,0,1,1.5,0,1.162,1.162,0,0,1,.294.818v25.75A1.142,1.142,0,0,1,216.059,77.542Z" transform="translate(-113.594 -49.843)" fill="#fff" opacity="0.5"/>
      <path id="Path_230" data-name="Path 230" d="M243.235,50.16a1.167,1.167,0,0,1,.3.818v25.75a1.142,1.142,0,0,1-.3.813,1.027,1.027,0,0,1-1.5,0,1.142,1.142,0,0,1-.3-.813V74.074a7.923,7.923,0,0,1-2.593,2.957,6.482,6.482,0,0,1-3.82,1.212,7.111,7.111,0,0,1-4.164-1.306,8.9,8.9,0,0,1-2.952-3.615,12.9,12.9,0,0,1,0-10.342,8.866,8.866,0,0,1,2.947-3.615,7.016,7.016,0,0,1,4.129-1.306,6.916,6.916,0,0,1,3.8,1.117,7.35,7.35,0,0,1,2.648,2.9V50.977a1.167,1.167,0,0,1,.3-.818,1.037,1.037,0,0,1,1.5,0ZM238.5,75.092a6.786,6.786,0,0,0,2.264-2.862,9.928,9.928,0,0,0,.818-4.109,9.733,9.733,0,0,0-.818-4.054,6.926,6.926,0,0,0-2.264-2.857,5.625,5.625,0,0,0-6.522,0,6.981,6.981,0,0,0-2.264,2.857,10.546,10.546,0,0,0,0,8.143,6.981,6.981,0,0,0,2.264,2.862,5.485,5.485,0,0,0,3.261,1.042A5.55,5.55,0,0,0,238.5,75.1Z" transform="translate(-119.891 -49.841)" fill="#fff" opacity="0.5"/>
      <path id="Path_231" data-name="Path 231" d="M272.623,64.163V76.848a2.831,2.831,0,0,0,.5,1.95,1.715,1.715,0,0,0,1.291.5,1.825,1.825,0,0,0,.524-.095,1.945,1.945,0,0,1,.5-.095.668.668,0,0,1,.539.284,1,1,0,0,1-.329,1.556,2.413,2.413,0,0,1-1.326.359,6.8,6.8,0,0,1-1.675-.189,2.678,2.678,0,0,1-1.411-1.137,5.264,5.264,0,0,1-.678-3.027V64.163h-2.563a1,1,0,0,1-.718-.3,1.122,1.122,0,0,1,0-1.5,1,1,0,0,1,.718-.3h2.543v-4.2a1.162,1.162,0,0,1,.294-.813,1.032,1.032,0,0,1,1.5,0,1.142,1.142,0,0,1,.294.813v4.2h3.49a.883.883,0,0,1,.678.344,1.132,1.132,0,0,1,.294.753,1,1,0,0,1-.279.743.932.932,0,0,1-.693.284Z" transform="translate(-140.025 -53.293)" fill="#fff" opacity="0.5"/>
      <path id="Path_232" data-name="Path 232" d="M305.7,84.536a1.167,1.167,0,0,1,0,1.5.937.937,0,0,1-.733.3H293.637a.893.893,0,0,1-.733-.359,1.2,1.2,0,0,1-.274-.738,1.327,1.327,0,0,1,.309-.873l10.347-15.483H294.51a.947.947,0,0,1-.713-.3,1.1,1.1,0,0,1,0-1.5.947.947,0,0,1,.713-.3h10.7a.873.873,0,0,1,.7.339,1.236,1.236,0,0,1,.279.8,1.5,1.5,0,0,1-.279.833L295.557,84.237h9.409a.952.952,0,0,1,.733.3Z" transform="translate(-152.881 -58.333)" fill="#fff" opacity="0.5"/>
      <path id="Path_233" data-name="Path 233" d="M326.911,101.908a1.691,1.691,0,0,1-.314-1.077v-.8a1.6,1.6,0,0,1,.314-1.057,1.1,1.1,0,0,1,.908-.379h.244a1.1,1.1,0,0,1,.9.379,1.6,1.6,0,0,1,.314,1.057v.8a1.69,1.69,0,0,1-.314,1.077,1.082,1.082,0,0,1-.9.4h-.244a1.087,1.087,0,0,1-.908-.4Z" transform="translate(-169.909 -74.284)" fill="#fff" opacity="0.5"/>
      <path id="Path_234" data-name="Path 234" d="M355.17,50.162a1.182,1.182,0,0,1,.294.818v25.75a1.162,1.162,0,0,1-.294.813,1.032,1.032,0,0,1-1.5,0,1.142,1.142,0,0,1-.294-.813V74.076a7.978,7.978,0,0,1-2.6,2.957,6.482,6.482,0,0,1-3.82,1.212,7.111,7.111,0,0,1-4.164-1.306,8.941,8.941,0,0,1-2.947-3.615,12.9,12.9,0,0,1,0-10.342,8.906,8.906,0,0,1,2.947-3.615,7.016,7.016,0,0,1,4.129-1.306,6.916,6.916,0,0,1,3.8,1.117,7.4,7.4,0,0,1,2.653,2.9V50.98a1.162,1.162,0,0,1,.294-.818,1.042,1.042,0,0,1,1.5,0Zm-4.742,24.932a6.786,6.786,0,0,0,2.264-2.862,9.927,9.927,0,0,0,.823-4.109,9.738,9.738,0,0,0-.823-4.054,6.926,6.926,0,0,0-2.264-2.857,5.615,5.615,0,0,0-6.517,0,6.936,6.936,0,0,0-2.269,2.857,10.546,10.546,0,0,0,0,8.143,6.951,6.951,0,0,0,2.269,2.862,5.44,5.44,0,0,0,3.256,1.042,5.55,5.55,0,0,0,3.261-1.012Z" transform="translate(-176.014 -49.843)" fill="#fff" opacity="0.5"/>
      <path id="Path_235" data-name="Path 235" d="M397.865,76.727a1.032,1.032,0,0,1-.369.813,1.072,1.072,0,0,1-.678.324.933.933,0,0,1-.768-.419l-7.7-8.861-2.613,2.423v5.719a1.142,1.142,0,0,1-.3.813,1.027,1.027,0,0,1-1.5,0,1.142,1.142,0,0,1-.3-.813V50.977a1.167,1.167,0,0,1,.3-.818,1.037,1.037,0,0,1,1.5,0,1.167,1.167,0,0,1,.3.818V68.245l10.053-9.429a.878.878,0,0,1,1.431,0,1.162,1.162,0,0,1,.314.778,1.276,1.276,0,0,1-.384.868l-7.18,6.627,7.584,8.761A1.331,1.331,0,0,1,397.865,76.727Z" transform="translate(-198.509 -49.841)" fill="#fff" opacity="0.5"/>
    </g>
    <g id="Group_10" data-name="Group 10" transform="translate(12.389 21.17)" opacity="0.75">
      <path id="Path_236" data-name="Path 236" d="M28.844,48.585a7.016,7.016,0,0,1,1.311,4.428c0,2.493-.7,4.323-2.109,5.55A7.684,7.684,0,0,1,22.8,60.4H13.437a1,1,0,0,1-.733-.319,1.177,1.177,0,0,1-.294-.818V35.027a1.162,1.162,0,0,1,.294-.813,1,1,0,0,1,.753-.324h9.22a6.013,6.013,0,0,1,4.582,1.74,6.706,6.706,0,0,1,1.655,4.8,7.15,7.15,0,0,1-.908,3.6,5.316,5.316,0,0,1-2.583,2.309A6.333,6.333,0,0,1,28.844,48.585Zm-3.3-11.269a4.159,4.159,0,0,0-3.156-1.192H14.618V45.6h7.774a4.159,4.159,0,0,0,3.087-1.326,5.245,5.245,0,0,0,1.187-3.68,4.582,4.582,0,0,0-1.117-3.276Zm.942,19.567a4.906,4.906,0,0,0,1.446-3.864,4.928,4.928,0,0,0-1.5-3.9,5.724,5.724,0,0,0-3.82-1.247h-8V58.164h8.088A5.485,5.485,0,0,0,26.491,56.882Z" transform="translate(-12.409 -32.375)" fill="#fff"/>
      <path id="Path_237" data-name="Path 237" d="M70.876,48.8a1.162,1.162,0,0,1,.294.813V60.291a7.894,7.894,0,0,1-1.915,5.7,7.026,7.026,0,0,1-5.3,1.995,6.909,6.909,0,0,1-5.246-1.995,7.849,7.849,0,0,1-1.88-5.7V49.61a1.162,1.162,0,0,1,.294-.813,1.032,1.032,0,0,1,1.5,0,1.142,1.142,0,0,1,.289.813V60.291a5.86,5.86,0,0,0,1.326,4.144,4.842,4.842,0,0,0,3.73,1.421,4.963,4.963,0,0,0,3.785-1.421,5.788,5.788,0,0,0,1.341-4.144V49.61a1.142,1.142,0,0,1,.289-.813,1.032,1.032,0,0,1,1.5,0Z" transform="translate(-34.679 -39.688)" fill="#fff"/>
      <path id="Path_238" data-name="Path 238" d="M106.161,47.728A6.408,6.408,0,0,1,108.43,48.8a1.92,1.92,0,0,1,.853,1.5,1.257,1.257,0,0,1-.259.758.8.8,0,0,1-.648.339,1,1,0,0,1-.573-.15,3.062,3.062,0,0,1-.5-.459,3.491,3.491,0,0,0-.868-.718,5.61,5.61,0,0,0-1.376-.434,9.315,9.315,0,0,0-1.83-.17,6.193,6.193,0,0,0-3.49,1.057A7.305,7.305,0,0,0,97.245,53.4a8.911,8.911,0,0,0-.908,4.019,9.384,9.384,0,0,0,.873,4.089,7.026,7.026,0,0,0,2.383,2.842,6.941,6.941,0,0,0,7.031.17,7.38,7.38,0,0,0,.833-.678,3.455,3.455,0,0,1,.5-.4.883.883,0,0,1,1.112.175,1.092,1.092,0,0,1,.244.738,2,2,0,0,1-.838,1.386,7.18,7.18,0,0,1-2.3,1.267,9.474,9.474,0,0,1-3.241.529A8.038,8.038,0,0,1,98.4,66.232a8.641,8.641,0,0,1-3.087-3.615,11.927,11.927,0,0,1-1.1-5.186A11.329,11.329,0,0,1,95.34,52.35a9.075,9.075,0,0,1,3.136-3.655,8.068,8.068,0,0,1,4.637-1.366,11.2,11.2,0,0,1,3.047.4Z" transform="translate(-53.424 -39.112)" fill="#fff"/>
      <path id="Path_239" data-name="Path 239" d="M145.339,41.514a9.179,9.179,0,0,1,1.536,5.51V57.74a1.177,1.177,0,0,1-.294.818,1.042,1.042,0,0,1-1.5,0,1.152,1.152,0,0,1-.294-.818V47.024a6.8,6.8,0,0,0-1.082-3.989,3.85,3.85,0,0,0-3.381-1.536,5.485,5.485,0,0,0-2.772.758,6.048,6.048,0,0,0-2.109,2.029,5.042,5.042,0,0,0-.8,2.743V57.74a1.177,1.177,0,0,1-.294.818,1.042,1.042,0,0,1-1.5,0,1.177,1.177,0,0,1-.294-.818V31.99a1.162,1.162,0,0,1,.294-.813,1.032,1.032,0,0,1,1.5,0,1.162,1.162,0,0,1,.294.813V43.085a7.609,7.609,0,0,1,2.623-2.683,6.4,6.4,0,0,1,3.416-1.042A5.379,5.379,0,0,1,145.339,41.514Z" transform="translate(-72.647 -30.854)" fill="#fff"/>
      <path id="Path_240" data-name="Path 240" d="M186.375,62.6a8.911,8.911,0,0,1-3.176,3.615,8.387,8.387,0,0,1-8.975,0,8.861,8.861,0,0,1-3.171-3.615,12.092,12.092,0,0,1,0-10.3,9.015,9.015,0,0,1,3.156-3.63,8.282,8.282,0,0,1,8.975,0,9.065,9.065,0,0,1,3.176,3.635,12.142,12.142,0,0,1,0,10.3Zm-1.815-9.24a7.036,7.036,0,0,0-2.423-2.862,6.176,6.176,0,0,0-6.851,0,7.181,7.181,0,0,0-2.418,2.862,9.733,9.733,0,0,0,0,8.143,7.131,7.131,0,0,0,2.418,2.857,5.984,5.984,0,0,0,3.421,1.042,6.088,6.088,0,0,0,3.431-1,6.881,6.881,0,0,0,2.423-2.842,10.018,10.018,0,0,0,0-8.178Z" transform="translate(-91.369 -39.124)" fill="#fff"/>
      <path id="Path_241" data-name="Path 241" d="M216.059,58.558a1.042,1.042,0,0,1-1.5,0,1.177,1.177,0,0,1-.294-.818V31.99a1.162,1.162,0,0,1,.294-.813,1.032,1.032,0,0,1,1.5,0,1.142,1.142,0,0,1,.294.813V57.74a1.152,1.152,0,0,1-.294.818Z" transform="translate(-113.614 -30.854)" fill="#fff"/>
      <path id="Path_242" data-name="Path 242" d="M243.234,31.175a1.142,1.142,0,0,1,.3.813v25.75a1.157,1.157,0,0,1-.3.818,1.037,1.037,0,0,1-1.5,0,1.157,1.157,0,0,1-.3-.818V55.09a7.908,7.908,0,0,1-2.593,2.952,6.482,6.482,0,0,1-3.82,1.212,7.076,7.076,0,0,1-4.164-1.306,8.831,8.831,0,0,1-2.952-3.615,12.884,12.884,0,0,1,0-10.337,8.881,8.881,0,0,1,2.952-3.6,7.051,7.051,0,0,1,4.129-1.306,6.916,6.916,0,0,1,3.8,1.117,7.38,7.38,0,0,1,2.648,2.9V31.988a1.142,1.142,0,0,1,.3-.813,1.027,1.027,0,0,1,1.5,0ZM238.5,56.107a6.787,6.787,0,0,0,2.264-2.862,9.923,9.923,0,0,0,.818-4.1,9.719,9.719,0,0,0-.818-4.054,6.981,6.981,0,0,0-2.264-2.862,5.645,5.645,0,0,0-6.522,0,7.016,7.016,0,0,0-2.264,2.862,9.8,9.8,0,0,0-.8,4.059,9.9,9.9,0,0,0,.818,4.089,6.981,6.981,0,0,0,2.264,2.857,5.67,5.67,0,0,0,6.522,0Z" transform="translate(-119.91 -30.852)" fill="#fff"/>
      <path id="Path_243" data-name="Path 243" d="M272.614,45.167V57.853a2.813,2.813,0,0,0,.5,1.95,1.7,1.7,0,0,0,1.291.5,2,2,0,0,0,.524-.095,1.74,1.74,0,0,1,.5-.095.668.668,0,0,1,.539.284,1,1,0,0,1-.329,1.551,2.413,2.413,0,0,1-1.326.359,6.567,6.567,0,0,1-1.675-.189,2.678,2.678,0,0,1-1.411-1.137,5.263,5.263,0,0,1-.678-3.027V45.167h-2.563a.967.967,0,0,1-.718-.3,1.047,1.047,0,0,1-.294-.758,1.062,1.062,0,0,1,.294-.758,1,1,0,0,1,.718-.3h2.543V38.86a1.177,1.177,0,0,1,.294-.818,1.042,1.042,0,0,1,1.5,0,1.152,1.152,0,0,1,.294.818v4.189h3.49a.878.878,0,0,1,.678.339,1.142,1.142,0,0,1,.294.758,1,1,0,0,1-.279.738.932.932,0,0,1-.693.284Z" transform="translate(-140.036 -34.298)" fill="#fff"/>
      <path id="Path_244" data-name="Path 244" d="M305.7,65.546a1.077,1.077,0,0,1,.279.758,1.092,1.092,0,0,1-.279.758.952.952,0,0,1-.733.3H293.637A.892.892,0,0,1,292.9,67a1.192,1.192,0,0,1-.274-.738,1.327,1.327,0,0,1,.309-.873l10.347-15.508H294.51a.967.967,0,0,1-.713-.3,1.112,1.112,0,0,1,0-1.5.967.967,0,0,1,.713-.3h10.7a.863.863,0,0,1,.7.344,1.212,1.212,0,0,1,.279.793,1.5,1.5,0,0,1-.279.833L295.557,65.242h9.409A.937.937,0,0,1,305.7,65.546Z" transform="translate(-152.901 -39.339)" fill="#fff"/>
      <path id="Path_245" data-name="Path 245" d="M326.911,82.918a1.69,1.69,0,0,1-.314-1.077v-.793a1.615,1.615,0,0,1,.314-1.062,1.1,1.1,0,0,1,.908-.379h.244a1.1,1.1,0,0,1,.9.379,1.616,1.616,0,0,1,.324,1.062v.793a1.69,1.69,0,0,1-.314,1.077,1.072,1.072,0,0,1-.9.4h-.244A1.072,1.072,0,0,1,326.911,82.918Z" transform="translate(-169.929 -55.295)" fill="#fff"/>
      <path id="Path_246" data-name="Path 246" d="M355.17,31.177a1.162,1.162,0,0,1,.294.813V57.74a1.177,1.177,0,0,1-.294.818,1.042,1.042,0,0,1-1.5,0,1.152,1.152,0,0,1-.294-.818V55.092a7.978,7.978,0,0,1-2.6,2.952,6.482,6.482,0,0,1-3.82,1.212,7.076,7.076,0,0,1-4.164-1.306,8.871,8.871,0,0,1-2.947-3.615,12.885,12.885,0,0,1,0-10.337,8.921,8.921,0,0,1,2.942-3.6,7.051,7.051,0,0,1,4.129-1.306,6.916,6.916,0,0,1,3.8,1.117,7.429,7.429,0,0,1,2.653,2.9V31.99a1.142,1.142,0,0,1,.294-.813,1.032,1.032,0,0,1,1.5,0Zm-4.742,24.932a6.786,6.786,0,0,0,2.264-2.862,9.922,9.922,0,0,0,.823-4.1,9.718,9.718,0,0,0-.823-4.054,6.981,6.981,0,0,0-2.264-2.862,5.64,5.64,0,0,0-6.517,0,6.981,6.981,0,0,0-2.269,2.862,9.8,9.8,0,0,0-.818,4.054,9.9,9.9,0,0,0,.818,4.089,6.936,6.936,0,0,0,2.269,2.857,5.44,5.44,0,0,0,3.256,1.042,5.515,5.515,0,0,0,3.261-1.017Z" transform="translate(-176.034 -30.854)" fill="#fff"/>
      <path id="Path_247" data-name="Path 247" d="M397.865,57.738a1.047,1.047,0,0,1-.369.818,1.062,1.062,0,0,1-.678.319.927.927,0,0,1-.768-.414l-7.7-8.861-2.613,2.423v5.714a1.157,1.157,0,0,1-.3.818,1.037,1.037,0,0,1-1.5,0,1.157,1.157,0,0,1-.3-.818V31.988a1.142,1.142,0,0,1,.3-.813,1.027,1.027,0,0,1,1.5,0,1.142,1.142,0,0,1,.3.813V49.256l10.053-9.429a.942.942,0,0,1,.733-.379.923.923,0,0,1,.7.359,1.167,1.167,0,0,1,.314.778,1.287,1.287,0,0,1-.384.873l-7.18,6.627,7.584,8.771a1.317,1.317,0,0,1,.314.883Z" transform="translate(-198.529 -30.852)" fill="#fff"/>
    </g>
    <g id="Group_11" data-name="Group 11" transform="translate(12.389 11.541)">
      <path id="Path_248" data-name="Path 248" d="M28.844,29.25A7.021,7.021,0,0,1,30.156,33.7a6.957,6.957,0,0,1-2.109,5.545,7.689,7.689,0,0,1-5.246,1.84H13.437a1,1,0,0,1-.733-.324,1.162,1.162,0,0,1-.294-.813V15.712A1.172,1.172,0,0,1,12.7,14.9a1,1,0,0,1,.753-.319h9.22a6.013,6.013,0,0,1,4.582,1.74,6.686,6.686,0,0,1,1.66,4.772,7.131,7.131,0,0,1-.908,3.6A5.3,5.3,0,0,1,25.429,27,6.323,6.323,0,0,1,28.844,29.25Zm-3.3-11.244a4.144,4.144,0,0,0-3.156-1.192H14.618v9.444h7.774a4.154,4.154,0,0,0,3.087-1.321,5.166,5.166,0,0,0,1.187-3.665A4.568,4.568,0,0,0,25.548,18.005Zm.942,19.562A4.916,4.916,0,0,0,27.937,33.7a4.866,4.866,0,0,0-1.5-3.9,5.729,5.729,0,0,0-3.82-1.252h-8v10.3h8.088a5.485,5.485,0,0,0,3.785-1.286Z" transform="translate(-12.409 -13.064)" fill="#fff"/>
      <path id="Path_249" data-name="Path 249" d="M70.856,29.482a1.177,1.177,0,0,1,.294.818V40.975a7.862,7.862,0,0,1-1.915,5.7,7.018,7.018,0,0,1-5.3,1.995,6.843,6.843,0,0,1-5.246-1.995,7.976,7.976,0,0,1-1.9-5.7V30.3a1.177,1.177,0,0,1,.294-.818,1.042,1.042,0,0,1,1.5,0,1.152,1.152,0,0,1,.309.818V40.975a5.857,5.857,0,0,0,1.326,4.149,4.842,4.842,0,0,0,3.74,1.411,4.963,4.963,0,0,0,3.785-1.421,5.8,5.8,0,0,0,1.341-4.149V30.3a1.152,1.152,0,0,1,.279-.818,1.042,1.042,0,0,1,1.5,0Z" transform="translate(-34.659 -20.377)" fill="#fff"/>
      <path id="Path_250" data-name="Path 250" d="M106.166,28.418a6.407,6.407,0,0,1,2.269,1.087,1.915,1.915,0,0,1,.853,1.5,1.232,1.232,0,0,1-.259.758.788.788,0,0,1-.648.339,1,1,0,0,1-.573-.15,2.8,2.8,0,0,1-.5-.454,3.366,3.366,0,0,0-.868-.718,5.39,5.39,0,0,0-1.376-.439,9.708,9.708,0,0,0-1.83-.17,6.158,6.158,0,0,0-3.49,1.062,7.305,7.305,0,0,0-2.493,2.877,8.876,8.876,0,0,0-.908,3.989,9.369,9.369,0,0,0,.873,4.089A7.076,7.076,0,0,0,99.6,45.042a6.208,6.208,0,0,0,3.54,1.042,7.235,7.235,0,0,0,1.995-.229,7.09,7.09,0,0,0,1.5-.643,7.614,7.614,0,0,0,.833-.683,3.844,3.844,0,0,1,.5-.4.868.868,0,0,1,.454-.13.833.833,0,0,1,.663.284,1.082,1.082,0,0,1,.244.738,2,2,0,0,1-.838,1.381,6.981,6.981,0,0,1-2.3,1.267,9.474,9.474,0,0,1-3.241.534A8.073,8.073,0,0,1,98.412,46.9a8.686,8.686,0,0,1-3.087-3.62,11.892,11.892,0,0,1-1.1-5.186,11.359,11.359,0,0,1,1.117-5.056,9.14,9.14,0,0,1,3.136-3.655,8.1,8.1,0,0,1,4.637-1.361A11.01,11.01,0,0,1,106.166,28.418Z" transform="translate(-53.429 -19.802)" fill="#fff"/>
      <path id="Path_251" data-name="Path 251" d="M145.334,22.2a9.134,9.134,0,0,1,1.536,5.485V38.429a1.162,1.162,0,0,1-.294.813,1.032,1.032,0,0,1-1.5,0,1.142,1.142,0,0,1-.294-.813v-10.7a6.8,6.8,0,0,0-1.082-3.989,3.846,3.846,0,0,0-3.381-1.536,5.485,5.485,0,0,0-2.772.758,6.034,6.034,0,0,0-2.109,2.024,5.056,5.056,0,0,0-.808,2.743v10.7a1.162,1.162,0,0,1-.294.813,1.032,1.032,0,0,1-1.5,0,1.162,1.162,0,0,1-.294-.813V12.68a1.177,1.177,0,0,1,.294-.818,1.042,1.042,0,0,1,1.5,0,1.177,1.177,0,0,1,.294.818V23.774a7.624,7.624,0,0,1,2.628-2.673,6.387,6.387,0,0,1,3.416-1.037A5.345,5.345,0,0,1,145.334,22.2Z" transform="translate(-72.642 -11.543)" fill="#fff"/>
      <path id="Path_252" data-name="Path 252" d="M186.374,43.3a8.976,8.976,0,0,1-3.176,3.62,8.387,8.387,0,0,1-8.975,0,8.906,8.906,0,0,1-3.171-3.62,12.12,12.12,0,0,1-.015-10.282,9.015,9.015,0,0,1,3.171-3.635,8.282,8.282,0,0,1,8.975,0,9.065,9.065,0,0,1,3.191,3.635,12.1,12.1,0,0,1,0,10.282Zm-1.815-9.24a6.981,6.981,0,0,0-2.423-2.857,6.151,6.151,0,0,0-6.851,0,7.131,7.131,0,0,0-2.418,2.857,9.19,9.19,0,0,0-.893,4.094,9.09,9.09,0,0,0,.893,4.049,7.18,7.18,0,0,0,2.418,2.862,5.984,5.984,0,0,0,3.421,1.042,6.093,6.093,0,0,0,3.431-1.027,6.836,6.836,0,0,0,2.423-2.837,10.028,10.028,0,0,0,0-8.183Z" transform="translate(-91.367 -19.823)" fill="#fff"/>
      <path id="Path_253" data-name="Path 253" d="M216.059,39.242a1.032,1.032,0,0,1-1.5,0,1.162,1.162,0,0,1-.294-.813V12.68a1.177,1.177,0,0,1,.294-.818,1.042,1.042,0,0,1,1.5,0,1.152,1.152,0,0,1,.294.818v25.75A1.142,1.142,0,0,1,216.059,39.242Z" transform="translate(-113.614 -11.543)" fill="#fff"/>
      <path id="Path_254" data-name="Path 254" d="M243.234,11.86a1.157,1.157,0,0,1,.3.818v25.75a1.142,1.142,0,0,1-.3.813,1.027,1.027,0,0,1-1.5,0,1.142,1.142,0,0,1-.3-.813V35.774a7.923,7.923,0,0,1-2.593,2.957,6.482,6.482,0,0,1-3.82,1.212,7.111,7.111,0,0,1-4.164-1.306,8.881,8.881,0,0,1-2.952-3.62,12.033,12.033,0,0,1-1.082-5.186,11.968,11.968,0,0,1,1.082-5.151,8.866,8.866,0,0,1,2.947-3.615,7.016,7.016,0,0,1,4.134-1.316,6.916,6.916,0,0,1,3.8,1.117,7.35,7.35,0,0,1,2.648,2.9V12.677a1.157,1.157,0,0,1,.3-.818,1.037,1.037,0,0,1,1.5,0ZM238.5,36.792a6.742,6.742,0,0,0,2.264-2.857,9.943,9.943,0,0,0,.818-4.109,9.718,9.718,0,0,0-.818-4.054,6.926,6.926,0,0,0-2.264-2.857,5.625,5.625,0,0,0-6.522,0,6.981,6.981,0,0,0-2.264,2.857,9.8,9.8,0,0,0-.8,4.059,9.878,9.878,0,0,0,.818,4.089,7.016,7.016,0,0,0,2.264,2.862,5.655,5.655,0,0,0,6.522,0Z" transform="translate(-119.91 -11.541)" fill="#fff"/>
      <path id="Path_255" data-name="Path 255" d="M272.623,25.833v12.69a2.831,2.831,0,0,0,.5,1.95,1.715,1.715,0,0,0,1.291.5,1.825,1.825,0,0,0,.524-.095,1.945,1.945,0,0,1,.5-.095.668.668,0,0,1,.539.284,1,1,0,0,1-.329,1.556,2.413,2.413,0,0,1-1.326.359,6.8,6.8,0,0,1-1.675-.189,2.678,2.678,0,0,1-1.411-1.137,5.111,5.111,0,0,1-.7-3.022v-12.8h-2.543a1,1,0,0,1-.718-.3,1.122,1.122,0,0,1,0-1.5,1,1,0,0,1,.718-.3h2.543V19.51a1.162,1.162,0,0,1,.294-.813,1.032,1.032,0,0,1,1.5,0,1.142,1.142,0,0,1,.294.813v4.2h3.49a.883.883,0,0,1,.678.344,1.132,1.132,0,0,1,.294.753,1,1,0,0,1-.279.743.947.947,0,0,1-.693.279Z" transform="translate(-140.045 -14.968)" fill="#fff"/>
      <path id="Path_256" data-name="Path 256" d="M305.7,46.191a1.167,1.167,0,0,1,0,1.5.937.937,0,0,1-.733.3H293.637a.893.893,0,0,1-.733-.359,1.2,1.2,0,0,1-.274-.738,1.327,1.327,0,0,1,.309-.873l10.347-15.508H294.51a.947.947,0,0,1-.7-.324,1.1,1.1,0,0,1,0-1.5.947.947,0,0,1,.713-.3h10.7a.873.873,0,0,1,.7.339,1.237,1.237,0,0,1,.279.8,1.5,1.5,0,0,1-.279.833L295.557,45.892h9.409a.952.952,0,0,1,.733.3Z" transform="translate(-152.901 -19.988)" fill="#fff"/>
      <path id="Path_257" data-name="Path 257" d="M326.911,63.609a1.691,1.691,0,0,1-.314-1.077v-.8a1.626,1.626,0,0,1,.314-1.062,1.112,1.112,0,0,1,.908-.374h.244a1.112,1.112,0,0,1,.9.374,1.626,1.626,0,0,1,.314,1.062v.8a1.69,1.69,0,0,1-.314,1.077,1.082,1.082,0,0,1-.9.4h-.244a1.087,1.087,0,0,1-.908-.4Z" transform="translate(-169.929 -35.984)" fill="#fff"/>
      <path id="Path_258" data-name="Path 258" d="M355.169,11.862a1.177,1.177,0,0,1,.294.818v25.75a1.162,1.162,0,0,1-.294.813,1.032,1.032,0,0,1-1.5,0,1.142,1.142,0,0,1-.294-.813V35.777a7.978,7.978,0,0,1-2.6,2.957,6.482,6.482,0,0,1-3.82,1.212,7.111,7.111,0,0,1-4.164-1.306,8.921,8.921,0,0,1-2.947-3.62,12.107,12.107,0,0,1-1.082-5.186,12.042,12.042,0,0,1,1.082-5.151,8.906,8.906,0,0,1,2.947-3.615,7.016,7.016,0,0,1,4.124-1.316,6.916,6.916,0,0,1,3.8,1.117,7.4,7.4,0,0,1,2.653,2.9V12.68a1.152,1.152,0,0,1,.294-.818,1.042,1.042,0,0,1,1.5,0Zm-4.742,24.932a6.742,6.742,0,0,0,2.264-2.857,9.972,9.972,0,0,0,.823-4.109,9.718,9.718,0,0,0-.823-4.054,6.926,6.926,0,0,0-2.264-2.857,5.615,5.615,0,0,0-6.517,0,6.936,6.936,0,0,0-2.269,2.857,10.544,10.544,0,0,0,0,8.143,6.981,6.981,0,0,0,2.269,2.862,5.44,5.44,0,0,0,3.256,1.042,5.52,5.52,0,0,0,3.261-1.022Z" transform="translate(-176.032 -11.543)" fill="#fff"/>
      <path id="Path_259" data-name="Path 259" d="M397.865,38.427a1.032,1.032,0,0,1-.369.813,1.072,1.072,0,0,1-.678.324.932.932,0,0,1-.768-.419l-7.7-8.861-2.613,2.428v5.714a1.142,1.142,0,0,1-.3.813,1.027,1.027,0,0,1-1.5,0,1.142,1.142,0,0,1-.3-.813V12.677a1.157,1.157,0,0,1,.3-.818,1.037,1.037,0,0,1,1.5,0,1.157,1.157,0,0,1,.3.818V29.945l10.053-9.429a.878.878,0,0,1,1.431,0,1.162,1.162,0,0,1,.314.778,1.276,1.276,0,0,1-.384.868l-7.18,6.627,7.564,8.786a1.331,1.331,0,0,1,.334.853Z" transform="translate(-198.529 -11.541)" fill="#fff"/>
    </g>
  </g>
</svg>
