<svg xmlns="http://www.w3.org/2000/svg" xmlns:xlink="http://www.w3.org/1999/xlink" width="797" height="539" viewBox="0 0 797 539">
  <defs>
    <clipPath id="clip-path">
      <rect id="Rectangle_4" data-name="Rectangle 4" width="797" height="539" transform="translate(163 1222)" fill="#fff" stroke="#707070" stroke-width="1"/>
    </clipPath>
    <clipPath id="clip-path-2">
      <rect id="Rectangle_14" data-name="Rectangle 14" width="1021" height="574.313" fill="none"/>
    </clipPath>
    <linearGradient id="linear-gradient" x1="0.502" y1="1.03" x2="0.498" y2="-0.008" gradientUnits="objectBoundingBox">
      <stop offset="0" stop-color="#29abe2"/>
      <stop offset="0.39" stop-color="#29a9e0"/>
      <stop offset="0.54" stop-color="#28a2db"/>
      <stop offset="0.65" stop-color="#2796d0"/>
      <stop offset="0.74" stop-color="#2585c2"/>
      <stop offset="0.82" stop-color="#236eaf"/>
      <stop offset="0.89" stop-color="#215298"/>
      <stop offset="0.95" stop-color="#1e327d"/>
      <stop offset="1" stop-color="#1b1464"/>
    </linearGradient>
    <radialGradient id="radial-gradient" cx="49.703" cy="24.402" r="124.021" gradientTransform="translate(28.116 20.106) scale(0.434 0.176)" gradientUnits="userSpaceOnUse">
      <stop offset="0" stop-opacity="0.698"/>
      <stop offset="1" stop-opacity="0"/>
    </radialGradient>
    <radialGradient id="radial-gradient-2" cx="51.853" cy="24.401" r="124.021" gradientTransform="translate(29.333 20.104) scale(0.434 0.176)" xlink:href="#radial-gradient"/>
  </defs>
  <g id="Mask_Group_1" data-name="Mask Group 1" transform="translate(-163 -1222)" clip-path="url(#clip-path)">
    <g id="tittelbilled" transform="translate(162.585 1267.344)">
      <g id="Titelskærm" transform="translate(-96 -64)">
        <g id="Group_2" data-name="Group 2" transform="translate(0.415)" clip-path="url(#clip-path-2)">
          <rect id="Rectangle_6" data-name="Rectangle 6" width="1021" height="574.313" transform="translate(-0.532)" fill="url(#linear-gradient)"/>
          <path id="Path_1" data-name="Path 1" d="M529.084,523.679H182.231V259.458l120.18-79.3Z" transform="translate(50.685 50.633)" fill="#9fb9bf"/>
          <path id="Path_2" data-name="Path 2" d="M369.471,283.717c-18.942,12.491-51.986,22.164-80.2,1.6-35.022-25.525-100.111,3.722-102.478-29.545L300.963,179.74Z" transform="translate(51.968 50.517)" fill="#f2f2f2"/>
          <path id="Path_3" data-name="Path 3" d="M418.084,547.362H0V175.192l.17-.112L120.18,95.889l77.2,117Z" transform="translate(-0.532 26.95)" fill="#aec8ce"/>
          <path id="Path_4" data-name="Path 4" d="M969.835,274.051V558.7H182.048L782.034,51.776Z" transform="translate(50.634 14.552)" fill="#666"/>
          <ellipse id="Ellipse_1" data-name="Ellipse 1" cx="56.102" cy="24.366" rx="56.102" ry="24.366" transform="translate(840.198 183.461)" fill="url(#radial-gradient)"/>
          <ellipse id="Ellipse_2" data-name="Ellipse 2" cx="56.102" cy="24.366" rx="56.102" ry="24.366" transform="translate(671.627 185.588)" fill="url(#radial-gradient-2)"/>
          <rect id="Rectangle_7" data-name="Rectangle 7" width="121.776" height="130.816" rx="2.076" transform="translate(752.456 69.13)" fill="#ccc"/>
          <path id="Path_5" data-name="Path 5" d="M570.852,104.749a1.329,1.329,0,0,1-1.329-1.329v-80.3a1.329,1.329,0,1,1,2.659,0v80.3A1.329,1.329,0,0,1,570.852,104.749Z" transform="translate(159.535 6.125)"/>
          <rect id="Rectangle_8" data-name="Rectangle 8" width="159.531" height="41.478" rx="2.076" transform="translate(728.526 165.381)" fill="#b3b3b3"/>
          <path id="Path_6" data-name="Path 6" d="M613.033,101.09a5.217,5.217,0,0,0-5.2-5.2H548.572a5.217,5.217,0,0,0-5.2,5.2v77.75c0,7.046,15.6,12.763,34.831,12.763s34.831-5.717,34.831-12.763V101.09Z" transform="translate(152.185 26.95)" fill="#b3b3b3"/>
          <path id="Path_7" data-name="Path 7" d="M553.749,129.064v-6.913c0-4.44,2.7-8.072,6-8.072h0c3.3,0,6,3.632,6,8.072v6.913" transform="translate(155.102 32.062)" fill="#333"/>
          <path id="Path_8" data-name="Path 8" d="M574.147,129.064v-6.913c0-4.44,2.7-8.072,6-8.072h0c3.3,0,5.993,3.632,5.993,8.072v6.913" transform="translate(160.835 32.062)" fill="#333"/>
          <path id="Path_9" data-name="Path 9" d="M580.87,28.316C566.513,30.443,546.305,25.657,536.2,23c-9.513-2.5,32.97,2.127,44.669,0" transform="translate(149.783 6.249)" fill="#f0f"/>
          <path id="Path_10" data-name="Path 10" d="M699.12,104.334A1.329,1.329,0,0,1,697.79,103v-80.3a1.329,1.329,0,1,1,2.659,0V103A1.329,1.329,0,0,1,699.12,104.334Z" transform="translate(195.585 6.008)"/>
          <path id="Path_11" data-name="Path 11" d="M741.3,100.292a4.834,4.834,0,0,0-4.818-4.818H676.456a4.834,4.834,0,0,0-4.818,4.818v79.734c0,7.046,15.6,12.763,34.831,12.763s34.831-5.717,34.831-12.763V100.292Z" transform="translate(188.235 26.833)" fill="#b3b3b3"/>
          <path id="Path_12" data-name="Path 12" d="M692.405,120.8v15.953H599.877a7.4,7.4,0,0,1-2.127-.314V121.109a7.4,7.4,0,0,1,2.127-.314Z" transform="translate(167.468 33.95)" fill="#999"/>
          <path id="Path_13" data-name="Path 13" d="M606.716,120.548v4.52a2.659,2.659,0,0,1-2.659,2.659H597.75V117.89h6.307a2.659,2.659,0,0,1,2.659,2.659Z" transform="translate(167.468 33.133)" fill="#999"/>
          <rect id="Rectangle_9" data-name="Rectangle 9" width="14.283" height="9.838" rx="2.076" transform="translate(782.873 151.023)" fill="#999"/>
          <path id="Path_14" data-name="Path 14" d="M673.139,117.89v9.838h-4.18a2.659,2.659,0,0,1-2.659-2.659v-4.52a2.659,2.659,0,0,1,2.659-2.659Z" transform="translate(186.735 33.133)" fill="#999"/>
          <rect id="Rectangle_10" data-name="Rectangle 10" width="14.283" height="9.838" rx="2.076" transform="translate(807.09 151.023)" fill="#999"/>
          <rect id="Rectangle_11" data-name="Rectangle 11" width="14.283" height="9.838" rx="2.076" transform="translate(830.685 151.023)" fill="#999"/>
          <path id="Path_15" data-name="Path 15" d="M684.9,127.9v-6.913c0-4.44,2.7-8.072,6-8.072h0c3.3,0,6,3.632,6,8.072V127.9" transform="translate(191.961 31.735)" fill="#333"/>
          <path id="Path_16" data-name="Path 16" d="M703.627,127.9v-6.913c0-4.44,2.7-8.072,5.993-8.072h0c3.3,0,6,3.632,6,8.072V127.9" transform="translate(197.225 31.735)" fill="#333"/>
          <path id="Path_17" data-name="Path 17" d="M709.138,27.9c-14.358,2.127-34.565-2.659-44.669-5.318-9.513-2.5,32.97,2.127,44.669,0" transform="translate(185.833 6.132)" fill="#f0f"/>
          <path id="Path_18" data-name="Path 18" d="M623.9,169.059V153.106c0-10.237,6.222-18.612,13.826-18.612h0c7.6,0,13.826,8.375,13.826,18.612v15.953" transform="translate(174.818 37.8)" fill="#754c24"/>
          <ellipse id="Ellipse_3" data-name="Ellipse 3" cx="76.043" cy="10.37" rx="76.043" ry="10.37" transform="translate(737.034 63.281)" fill="#999"/>
          <path id="Path_19" data-name="Path 19" d="M727.066,72.507,576.58,71.789,648.013,0h6.546Z" transform="translate(161.518)" fill="#999"/>
          <path id="Path_20" data-name="Path 20" d="M607.713,88.384V81.471c0-4.44,2.7-8.072,6-8.072h0c3.3,0,6,3.632,6,8.072v6.913" transform="translate(170.268 20.629)" fill="#333"/>
          <path id="Path_21" data-name="Path 21" d="M630.128,90.46V83.547c0-4.44,2.7-8.072,6-8.072h0c3.3,0,6,3.632,6,8.072V90.46" transform="translate(176.568 21.212)" fill="#333"/>
          <path id="Path_22" data-name="Path 22" d="M649.638,88.384V81.471c0-4.44,2.7-8.072,6-8.072h0c3.3,0,6,3.632,6,8.072v6.913" transform="translate(182.052 20.629)" fill="#333"/>
          <path id="Path_23" data-name="Path 23" d="M732.18,257.849c-7.764,27.918-64.3,50.21-78.17,83.052-14.576,34.5,14.709,46.179,15.421,100.728.293,22.286,1.064,46.493-12.05,87.306H460.961c24.945-9.726,58.192-49.013,65.408-55.692,9.572-8.838,33.5-33.379,41.478-107.694,2.568-23.871,24.137-56.331,32.438-67,23.4-30,69.875-25.525,85.881-51.167,8.179-13.119,9.992-37.293-17.017-85.924h28.184C717.833,187.006,741.039,226.017,732.18,257.849Z" transform="translate(129.023 45.378)" fill="#bdccd4"/>
          <path id="Path_24" data-name="Path 24" d="M188.779,200.116c-18.942,12.491-38.819-7.445-94.123,21.271C56.2,241.355,2.366,208.4,0,175.123L120.18,95.889Z" transform="translate(-0.532 26.95)" fill="#f2f2f2"/>
          <line id="Line_2" data-name="Line 2" x2="28.716" y2="48.923" transform="translate(767.877 440.306)" fill="none" stroke="#000" stroke-linecap="round" stroke-miterlimit="10" stroke-width="0.83"/>
          <path id="Path_25" data-name="Path 25" d="M615.638,365.693c0,1.6-.84,2.127-3.191,2.127s-2.659-1.6-2.659-3.191.309-2.659,2.659-2.659S615.638,364.1,615.638,365.693Z" transform="translate(170.852 101.733)" fill="#b88c8c"/>
          <path id="Path_26" data-name="Path 26" d="M599.385,347.034l-.9-5.993,4.382,3.946" transform="translate(167.674 95.851)" fill="#333"/>
          <path id="Path_27" data-name="Path 27" d="M596.2,400.588l-2.021,12.778-8.912,3.2,5.887,5.887" transform="translate(163.96 112.587)" fill="none" stroke="#000" stroke-linecap="round" stroke-linejoin="round" stroke-width="1.245"/>
          <path id="Path_28" data-name="Path 28" d="M601.486,395.231l12.763-2.127,5.849,7.445,3.722-7.445" transform="translate(168.518 110.483)" fill="none" stroke="#000" stroke-linecap="round" stroke-linejoin="round" stroke-width="1.245"/>
          <path id="Path_29" data-name="Path 29" d="M606.269,372.561l-21.8,4.254,3.722-11.167,10.369-1.622Z" transform="translate(163.735 102.311)" fill="#333"/>
          <path id="Path_30" data-name="Path 30" d="M606.269,372.561l-21.8,4.254,3.722-11.167,10.369-1.622Z" transform="translate(163.735 102.311)" fill="#333"/>
          <path id="Path_31" data-name="Path 31" d="M559.664,321.118l11.545-5.078,1.611-10.385" transform="translate(156.764 85.905)" fill="none" stroke="#000" stroke-linecap="round" stroke-linejoin="round" stroke-width="1.245"/>
          <line id="Line_3" data-name="Line 3" x2="24.929" y2="42.473" transform="translate(716.891 368.246)" fill="none" stroke="#000" stroke-linecap="round" stroke-miterlimit="10" stroke-width="0.83"/>
          <path id="Path_32" data-name="Path 32" d="M573.75,306.549c0,1.4-.734,1.845-2.77,1.845s-2.287-1.367-2.287-2.786.266-2.308,2.308-2.308S573.75,305.145,573.75,306.549Z" transform="translate(159.302 85.244)" fill="#b88c8c"/>
          <path id="Path_33" data-name="Path 33" d="M559.641,290.345l-.782-5.206,3.8,3.43" transform="translate(156.538 80.139)" fill="#333"/>
          <path id="Path_34" data-name="Path 34" d="M556.876,336.836l-1.75,11.093L547.39,350.7l5.11,5.11" transform="translate(153.314 94.669)" fill="none" stroke="#000" stroke-linecap="round" stroke-linejoin="round" stroke-width="1.245"/>
          <path id="Path_35" data-name="Path 35" d="M561.466,332.185l11.082-1.845,5.078,6.461,3.233-6.461" transform="translate(157.27 92.843)" fill="none" stroke="#000" stroke-linecap="round" stroke-linejoin="round" stroke-width="1.245"/>
          <path id="Path_36" data-name="Path 36" d="M666.689,199.265l-6.131-2.7-.861-5.52" transform="translate(184.878 53.694)" fill="none" stroke="#000" stroke-linecap="round" stroke-linejoin="round" stroke-width="1.245"/>
          <line id="Line_4" data-name="Line 4" x1="13.252" y2="22.579" transform="translate(838.071 232.341)" fill="none" stroke="#000" stroke-linecap="round" stroke-miterlimit="10" stroke-width="0.83"/>
          <path id="Path_37" data-name="Path 37" d="M658.26,191.516c0,.744.388.978,1.473.978s1.228-.723,1.228-1.473-.144-1.223-1.228-1.223A1.548,1.548,0,0,0,658.26,191.516Z" transform="translate(184.475 53.343)" fill="#b88c8c"/>
          <path id="Path_38" data-name="Path 38" d="M665.615,182.9l.415-2.771-2.021,1.824" transform="translate(186.091 50.627)" fill="#333"/>
          <path id="Path_39" data-name="Path 39" d="M667.745,207.619l.931,5.9,4.116,1.478-2.717,2.717" transform="translate(187.141 58.352)" fill="none" stroke="#000" stroke-linecap="round" stroke-linejoin="round" stroke-width="1.245"/>
          <path id="Path_40" data-name="Path 40" d="M666.462,205.149l-5.892-.984-2.7,3.435-1.718-3.435" transform="translate(183.882 57.381)" fill="none" stroke="#000" stroke-linecap="round" stroke-linejoin="round" stroke-width="1.245"/>
          <path id="Path_41" data-name="Path 41" d="M648.839,223.341l-6.131-2.7-.861-5.52" transform="translate(179.862 60.46)" fill="none" stroke="#000" stroke-linecap="round" stroke-linejoin="round" stroke-width="1.245"/>
          <line id="Line_5" data-name="Line 5" x1="13.252" y2="22.579" transform="translate(815.205 263.184)" fill="none" stroke="#000" stroke-linecap="round" stroke-miterlimit="10" stroke-width="0.83"/>
          <path id="Path_42" data-name="Path 42" d="M640.41,215.592c0,.744.388.978,1.473.978s1.228-.723,1.228-1.473-.144-1.223-1.228-1.223A1.548,1.548,0,0,0,640.41,215.592Z" transform="translate(179.458 60.11)" fill="#b88c8c"/>
          <path id="Path_43" data-name="Path 43" d="M647.765,206.981l.415-2.771-2.021,1.824" transform="translate(181.074 57.394)" fill="#333"/>
          <path id="Path_44" data-name="Path 44" d="M649.9,231.695l.931,5.9,4.116,1.478-2.717,2.717" transform="translate(182.124 65.119)" fill="none" stroke="#000" stroke-linecap="round" stroke-linejoin="round" stroke-width="1.245"/>
          <path id="Path_45" data-name="Path 45" d="M648.613,229.225l-5.892-.984-2.7,3.435-1.718-3.435" transform="translate(178.865 64.148)" fill="none" stroke="#000" stroke-linecap="round" stroke-linejoin="round" stroke-width="1.245"/>
          <path id="Path_46" data-name="Path 46" d="M609.323,264.471l8-3.52,1.122-7.205" transform="translate(170.721 71.316)" fill="none" stroke="#000" stroke-linecap="round" stroke-linejoin="round" stroke-width="1.245"/>
          <line id="Line_6" data-name="Line 6" x2="17.293" y2="29.46" transform="translate(780.363 308.89)" fill="none" stroke="#000" stroke-linecap="round" stroke-miterlimit="10" stroke-width="0.83"/>
          <path id="Path_47" data-name="Path 47" d="M619.094,254.361c0,.973-.532,1.282-1.92,1.282s-1.6-.952-1.6-1.925.191-1.6,1.6-1.6A2.022,2.022,0,0,1,619.094,254.361Z" transform="translate(172.479 70.86)" fill="#b88c8c"/>
          <path id="Path_48" data-name="Path 48" d="M609.305,243.126l-.542-3.611,2.638,2.377" transform="translate(170.563 67.317)" fill="#333"/>
          <path id="Path_49" data-name="Path 49" d="M607.387,275.372l-1.212,7.695-5.366,1.925,3.542,3.547" transform="translate(168.328 77.394)" fill="none" stroke="#000" stroke-linecap="round" stroke-linejoin="round" stroke-width="1.245"/>
          <path id="Path_50" data-name="Path 50" d="M610.573,272.144l7.684-1.276,3.526,4.483,2.239-4.483" transform="translate(171.072 76.129)" fill="none" stroke="#000" stroke-linecap="round" stroke-linejoin="round" stroke-width="1.245"/>
          <g id="Evil_guy1" data-name="Evil guy1" transform="translate(96.782 157.176)">
            <path id="Path_51" data-name="Path 51" d="M230.25,354.261l64.5-22.244L327,264.185" transform="translate(-32.601 -82.925)" fill="none" stroke="#000" stroke-linecap="round" stroke-linejoin="round" stroke-width="4.151"/>
            <path id="Path_52" data-name="Path 52" d="M284.339,507.976H143.292c-16.363-5.674-25.982-13.932-31.247-24.116-5.5-10.635-6.259-23.4-5-37.49.33-3.722.8-7.5,1.356-11.375,1.016-7.057,2.329-14.358,3.643-21.888,2.845-16.309,5.685-33.5,5.451-50.71v-.319q0-1.744-.1-3.494c-.659-16.379-1.287-30.673-1.09-43.159.707-46.174,12.6-67.492,75.208-77.809,22.988-3.786,39.883-.617,52.645,7.445,21,13.294,30.816,39.8,38.213,70.359,3.217,13.294,5.977,27.3,9,41.335,2.255,10.5,4.664,21.01,7.519,31.2C319.92,463.047,316.357,492.384,284.339,507.976Z" transform="translate(-67.376 -90.839)" fill="#b88c8c"/>
            <path id="Path_53" data-name="Path 53" d="M305.045,300.828,103.477,337.1l32.268-108.752,79.138-14.241Z" transform="translate(-68.231 -97)" fill="#1a1a1a"/>
            <path id="Path_54" data-name="Path 54" d="M157.3,315.885l27.849-57.777L206.1,310.546Z" transform="translate(-53.106 -84.633)" fill="#b88c8c"/>
            <path id="Path_55" data-name="Path 55" d="M200.736,305.057l8.9-47.817,37.809,52.268Z" transform="translate(-40.896 -84.877)" fill="#b88c8c"/>
            <rect id="Rectangle_12" data-name="Rectangle 12" width="5.85" height="379.058" transform="translate(231.666 31.191) rotate(-23.33)" fill="#1a1a1a"/>
            <path id="Path_56" data-name="Path 56" d="M256.755,166.058l-10.013-43.366L275.66,156.05Z" transform="translate(-27.966 -122.692)" fill="#999"/>
            <path id="Path_57" data-name="Path 57" d="M324.792,273.767c-3.722,7.759-8.982,8.753-21.17,2.93s-11.449-14.076-7.743-21.834,8.982-12.087,21.17-6.259S328.5,266.014,324.792,273.767Z" transform="translate(-14.829 -88.062)" fill="#b88c8c"/>
            <path id="Path_58" data-name="Path 58" d="M217.192,322.349l-30.38,161.366H163.834l-40.223-62.669-6.621-10.311L75.964,346.816l50.119-8.678,7.977-1.383Z" transform="translate(-75.964 -66.578)" fill="#1a1a1a"/>
            <line id="Line_7" data-name="Line 7" x2="20.659" y2="17.24" transform="translate(118.697 174.586)" fill="none" stroke="#000" stroke-linecap="round" stroke-miterlimit="10" stroke-width="2.076"/>
            <line id="Line_8" data-name="Line 8" x1="18.346" y2="17.24" transform="translate(167.072 174.586)" fill="none" stroke="#000" stroke-linecap="round" stroke-miterlimit="10" stroke-width="2.076"/>
            <ellipse id="Ellipse_4" data-name="Ellipse 4" cx="10.566" cy="8.338" rx="10.566" ry="8.338" transform="translate(108.683 225.742)" fill="#d6c7c7"/>
            <path id="Path_59" data-name="Path 59" d="M188.125,279.84a5.988,5.988,0,0,1-7.95,2.887c-2.989-1.4-10.2-7.546-8.806-10.54s10.88-1.691,13.869-.292a5.972,5.972,0,0,1,2.888,7.945Z" transform="translate(-49.2 -81.186)"/>
            <path id="Path_60" data-name="Path 60" d="M207.144,279.006a5.993,5.993,0,0,0,7.977,2.888c3-1.4,10.231-7.562,8.833-10.556s-10.907-1.7-13.906-.3A5.993,5.993,0,0,0,207.144,279.006Z" transform="translate(-39.254 -81.426)"/>
            <path id="Path_61" data-name="Path 61" d="M241.044,297.252,230.27,325.276l-8.423.282-4.786.16-2.967.1-.505.016-24.238.808-2.026-5.568-1.9-5.211-.792-2.17-.58-1.6L179.4,299.3Z" transform="translate(-46.894 -73.632)"/>
            <path id="Path_62" data-name="Path 62" d="M213.079,320.406a10.321,10.321,0,0,1-.308,2.5h-.505l-24.238.808L186,318.151l-1.9-5.211a14.4,14.4,0,0,1,1.93-1.787,16.112,16.112,0,0,1,3.355-1.978,19.431,19.431,0,0,1,15.421,0,16.111,16.111,0,0,1,3.355,1.978A11.778,11.778,0,0,1,213.079,320.406Z" transform="translate(-45.571 -70.729)" fill="#f15a24"/>
            <path id="Path_63" data-name="Path 63" d="M277,505.994H136.085c-5.5-14.416-3.137-37.415-1.781-52.565.33-3.722.8-7.5,1.356-11.375,3.228-22.388,9.434-47.455,9.093-72.6v-.319q0-1.744-.1-3.494c-.659-16.379-1.287-30.673-1.09-43.158.707-46.174,12.6-67.492,75.208-77.809a112.253,112.253,0,0,1,18.08-1.6c21,13.294,30.816,39.8,38.213,70.359,3.217,13.294,5.977,27.3,9,41.335,2.255,10.5,4.664,21.01,7.519,31.2C312.585,461.064,309.022,490.4,277,505.994Z" transform="translate(-60.042 -88.857)" fill="#937272" opacity="0.5"/>
          </g>
          <path id="Path_64" data-name="Path 64" d="M220.986,129.049a3,3,0,0,1,2.382,1.712q.734,1.787-1.181,7.626-5.185,15.459-14.81,19.4a12.917,12.917,0,0,1-11.6-.7q-5.717-3.111-8.694-10.375-5.382-13.145-.968-30.688t14.2-21.537q7.009-2.877,10.1,4.669,3.478,8.476-1.43,19.92a48.04,48.04,0,0,1-15.421,19.457q6.828,13.363,16.628,9.343Q219.869,143.917,220.986,129.049ZM190.9,131.41a10.1,10.1,0,0,0,3.292-.675,20.739,20.739,0,0,0,10.715-9.513q3.568-6.578,1.154-12.459-2.76-6.748-9.625-3.935-4.961,2.031-6.546,9.572T190.9,131.41Z" transform="translate(51.217 26.335)"/>
          <path id="Path_65" data-name="Path 65" d="M230.386,106.154l12.039,49.183q4.127,16.714,3.8,26.339a43.074,43.074,0,0,1-5.344,18.995q-7.354,13.768-20.861,18.538a23.6,23.6,0,0,1-7.445.994l5.318-9.886a30.919,30.919,0,0,0,9.63-1.553q17.336-6.126,10.752-33.342l-3.632-15.139-12.608-51.2-10.582,3.722,4.281-9.178,4.632-1.643-.861-3.526q-5.568-22.483.532-38.287T242.617,38.55a50.665,50.665,0,0,1,7.2-1.888l-5.376,10.96a25.254,25.254,0,0,0-9.237,1.351q-10.1,3.574-11.917,12.087t3.26,29.029l2.18,8.96,23.781-8.407-4.573,9.29Z" transform="translate(58.897 10.304)"/>
          <path id="Path_66" data-name="Path 66" d="M285.541,108.317a3.026,3.026,0,0,1,2.207,1.946q.532,1.851-1.936,7.445-6.7,14.89-16.671,17.836a12.906,12.906,0,0,1-11.476-1.851q-5.376-3.659-7.62-11.167-4.052-13.613,2.127-30.63t16.208-20.021q7.28-2.164,9.614,5.658,2.616,8.785-3.409,19.676A48.127,48.127,0,0,1,257.3,115.033q5.456,13.975,15.613,10.954Q282.957,123,285.541,108.317Zm-30.162-.643a10.2,10.2,0,0,0,3.345-.346,20.739,20.739,0,0,0,11.609-8.4q4.206-6.19,2.388-12.284-2.074-6.987-9.184-4.871-5.137,1.521-7.445,8.886t-.713,17.011Z" transform="translate(69.293 20.069)"/>
          <path id="Path_67" data-name="Path 67" d="M305.952,122.737l-8.285,5.722-.2-1.744-.505-4.61-.452-4.371L293.45,88.8l-.346-3.308q-.463-3.85-.973-6.163-.861-3.893-2.813-3.467-4.573,1.01-7.53,12.513c-1.1-.564-1.718-1.127-1.84-1.7q-.8-3.653,4.472-11.422t9.12-8.62q5.243-1.154,6.716,5.541a46.531,46.531,0,0,1,.7,4.626l.6,5.041.415,4.254.452,4.435a81.939,81.939,0,0,1,11.832-21.154q7.014-8.854,13.034-10.183,5.9-1.3,7.716,6.913a65.4,65.4,0,0,1,1.005,7.62l1.7,23.4a79.864,79.864,0,0,0,1.367,10.981c.468,2.127,1.266,3.036,2.4,2.786q4.212-.931,7.913-13.427,1.665.59,1.882,1.563.867,3.956-4.5,11.874t-9.641,8.865q-4.754,1.064-6.259-5.77A105.043,105.043,0,0,1,329.1,99.908L328,84.7A85.785,85.785,0,0,0,326.521,73.1q-1.064-4.786-4.4-4.068-7.785,1.718-13.443,14.039a46.522,46.522,0,0,0-4.329,24.727Z" transform="translate(78.119 16.587)"/>
          <path id="Path_68" data-name="Path 68" d="M375.463,64.762l-.1-5.392q-.34-20.064,9.253-34.634T408.933,8.25a26.291,26.291,0,0,1,6.142-.17l-7.615,10.1a21.547,21.547,0,0,0-6.993-.1q-9.29,1.2-13.012,8.28t-3.435,22.93l.989,52.236.069,3.956c.085,3.547.223,6.068.415,7.546.266,2.021.931,2.957,2,2.818q5.121-.67,8.806-12.9,1.8.771,1.92,1.76.287,2.228-3.871,9.364-5.849,9.811-11.949,10.6-4.786.612-5.61-5.935-.319-2.409-.532-9.673l-.059-5.493-.149-4.632q-2.989,9.822-11.305,19.473t-14.422,10.455q-8.7,1.122-10.476-12.529-2.324-17.862,7.876-33.64t25.323-17.74A20.783,20.783,0,0,1,375.463,64.762Zm.175,9.04a20.349,20.349,0,0,0-9.9-1.6q-9.157,1.191-13.752,12.326t-2.515,27.12q1.063,8.024,5.743,7.413,5.679-.744,12.231-10.1,8.546-12.092,8.3-28.062Z" transform="translate(94.862 2.241)"/>
          <path id="Path_69" data-name="Path 69" d="M427.664,87.77a3.068,3.068,0,0,1,1.691,2.4q.1,1.93-3.637,6.807-10,12.879-20.388,13.427a12.927,12.927,0,0,1-10.721-4.488q-4.371-4.828-4.786-12.667-.75-14.188,9.221-29.285t20.521-15.65q7.594-.4,8.019,7.753.484,9.152-7.929,18.33A48.251,48.251,0,0,1,398.672,87.7q2.026,14.89,12.608,14.31Q421.692,101.437,427.664,87.77Zm-29.173-7.705a10.1,10.1,0,0,0,3.334.452,20.739,20.739,0,0,0,13.252-5.44q5.546-5.036,5.206-11.385-.383-7.275-7.785-6.913-5.355.282-9.343,6.913T398.491,80.065Z" transform="translate(109.015 13.575)"/>
          <path id="Path_70" data-name="Path 70" d="M447.339,74.459q14.321-25.966,27.705-25.716a16.437,16.437,0,0,1,6.945,1.75l-8.96,9.434a10.253,10.253,0,0,0-5.084-1.218q-6.466-.128-13.863,10.237a47.449,47.449,0,0,0-8.849,21.68L443.265,105.8l-9.322,2.967.223-1.867.532-4.041.574-4.041L439.1,69.221l.436-3.233a52.8,52.8,0,0,0,.532-5.972q.069-3.807-2.047-3.845-4.993-.09-10.1,10.471a3.014,3.014,0,0,1-1.452-2.457q.266-3.8,7.152-9.933T444.44,48.19q5.318.1,5.174,7.078a44.421,44.421,0,0,1-.4,4.547l-.532,4.35-.675,5.222Z" transform="translate(119.327 13.544)"/>
          <path id="Path_71" data-name="Path 71" d="M463.613,106.056l9.226-6.227a16.084,16.084,0,0,0,11.7,6.27q8.96.814,9.747-7.806.441-4.786-7-14.1L484.1,80.212q-7.041-8.843-6.578-13.869.654-7.205,7.344-11.534a24.2,24.2,0,0,1,15.8-3.494,36.452,36.452,0,0,1,10.694,2.856l-8.078,6.206a17.123,17.123,0,0,0-10.167-4.5q-6.764-.612-7.28,5.031-.367,4.036,6.424,12.539l3.472,4.446q7.748,9.721,7.248,15.182-.718,7.817-8.774,13.119a27.12,27.12,0,0,1-17.862,4.408A26.716,26.716,0,0,1,463.613,106.056Z" transform="translate(129.769 14.385)"/>
          <path id="Path_72" data-name="Path 72" d="M115.513,215.821l5.073-17.931a70.829,70.829,0,0,0,13.023-3.191A21.352,21.352,0,0,0,137,181.1q-.734-6.812-7.445-24.366L104.819,92.45q-34.634,23.4-23.047,45.791a35.467,35.467,0,0,0,10.816,12.108L85.8,169.6q-3.861-3.063-7.913-10.9-12.667-24.461-.314-47.243T125.8,70.116Q185,39.47,206.323,80.65q12.762,24.632,6.876,54.033-7.876,38.92-53.129,62.345A352.174,352.174,0,0,1,115.513,215.821Zm1.654-132.166,24.935,64.78,3.191,8.094q4.307,11.316,3.5,17.947t-7.663,17.415A274.5,274.5,0,0,0,175.773,177.1q14.448-7.477,20.207-15.592t7.445-23.265a69.383,69.383,0,0,0-7.684-40.627q-22.3-43.073-75.9-15.347Z" transform="translate(19.557 16.031)"/>
          <path id="Path_73" data-name="Path 73" d="M597.141,375.08l-5.148,27.344h-.463c-.6-.085-.745.106-1.276,0h-1.563v.154l-.1-.154-.314-.484-6.711-10.46-7.9-12.332,9.652-1.675Z" transform="translate(160.701 105.418)" fill="#4d4d4d"/>
          <path id="Path_74" data-name="Path 74" d="M608.7,388.316c5.85,12.231-.707,24.3-9.327,25.142s-14.6-10.784-14.071-24.61c.532-13.5.707-23.238,9.327-24.079S602.853,376.128,608.7,388.316Z" transform="translate(163.961 102.508)" fill="#b88c8c"/>
          <path id="Path_75" data-name="Path 75" d="M606.269,372.561l-21.8,4.254,3.722-11.167,10.369-1.622Z" transform="translate(163.735 102.311)" fill="#333"/>
          <path id="Path_76" data-name="Path 76" d="M599.411,382.483l13.294-5.849,1.861-11.965" transform="translate(167.935 102.492)" fill="none" stroke="#000" stroke-linecap="round" stroke-linejoin="round" stroke-width="1.245"/>
          <path id="Path_77" data-name="Path 77" d="M561.857,314.475l-5.148,27.344h-.463c-.6-.085-.745.106-1.276,0h-1.563v.154l-.1-.154-.314-.484-6.711-10.46-7.9-12.332,9.652-1.675Z" transform="translate(150.785 88.384)" fill="#4d4d4d"/>
          <path id="Path_78" data-name="Path 78" d="M567.732,326.2c5.078,10.635-.612,21.1-8.094,21.8s-12.677-9.364-12.231-21.367c.447-11.7.612-20.175,8.1-20.9S562.675,315.606,567.732,326.2Z" transform="translate(153.312 85.918)" fill="#b88c8c"/>
          <path id="Path_79" data-name="Path 79" d="M568.08,311.955l-21.8,4.254L550,305.042l10.37-1.622Z" transform="translate(153.002 85.277)" fill="#333"/>
          <path id="Path_80" data-name="Path 80" d="M611.035,259.054l-4.1,21.765h-.367c-.473-.064-.6.085-1.016,0h-1.244v.122l-.08-.122-.25-.383-5.344-8.328-6.28-9.822,7.684-1.329Z" transform="translate(165.952 72.808)" fill="#4d4d4d"/>
          <path id="Path_81" data-name="Path 81" d="M614.917,267.981c3.526,7.365-.425,14.64-5.616,15.145s-8.8-6.5-8.471-14.82c.308-8.131.425-14,5.615-14.5S611.407,260.643,614.917,267.981Z" transform="translate(168.328 71.326)" fill="#b88c8c"/>
          <path id="Path_82" data-name="Path 82" d="M613.885,258.606,599,261.509l2.542-7.626,7.083-1.106Z" transform="translate(167.818 71.044)" fill="#333"/>
          <path id="Path_83" data-name="Path 83" d="M661.639,219.54l-2.813,14.953h-.255c-.324-.048-.409.059-.7,0h-.856v.085l-.058-.085-.17-.266-3.669-5.717-4.313-6.748,5.281-.909Z" transform="translate(181.818 61.703)" fill="#4d4d4d"/>
          <path id="Path_84" data-name="Path 84" d="M677.829,196.71l-2.813,14.953h-.255c-.324-.048-.409.059-.7,0h-.856v.085l-.059-.085-.17-.266-3.669-5.717L665,198.932l5.281-.909Z" transform="translate(186.368 55.286)" fill="#4d4d4d"/>
          <path id="Path_85" data-name="Path 85" d="M663.467,201.958c-2.7,5.642.324,11.215,4.307,11.6s6.738-4.977,6.493-11.359c-.239-6.232-.33-10.726-4.307-11.114S666.158,196.332,663.467,201.958Z" transform="translate(185.649 53.701)" fill="#b88c8c"/>
          <path id="Path_86" data-name="Path 86" d="M645.617,226.035c-2.7,5.642.324,11.215,4.307,11.6s6.738-4.977,6.493-11.359c-.239-6.232-.33-10.726-4.307-11.114S648.308,220.408,645.617,226.035Z" transform="translate(180.632 60.468)" fill="#b88c8c"/>
          <path id="Path_87" data-name="Path 87" d="M657.8,221.1l-11.811-3.728,4.8-4.477,5.509,1.968Z" transform="translate(181.025 59.836)" fill="#333"/>
          <path id="Path_88" data-name="Path 88" d="M675.645,197.858l-11.811-3.728,4.8-4.477,5.509,1.968Z" transform="translate(186.041 53.303)" fill="#333"/>
          <path id="Path_89" data-name="Path 89" d="M712.576,74.125l-7.982,2.127-6.908-.165" transform="translate(195.556 20.833)" fill="none" stroke="#000" stroke-linecap="round" stroke-linejoin="round" stroke-width="1.245"/>
          <path id="Path_90" data-name="Path 90" d="M726.082,72.96c4.93,3.85,1.808,11.944-2.728,14.448s-10.635.106-13.693-5.366-1.627-13.066,1.143-16.581C714.011,61.394,721.147,69.1,726.082,72.96Z" transform="translate(198.439 18.074)" fill="#ddadad"/>
          <path id="Path_91" data-name="Path 91" d="M716.29,65.759c2.079,3.754,2.547,7.471-.34,9.067s-6.913-.154-8.982-3.909-1.425-8.094,1.462-9.694S714.195,62,716.29,65.759Z" transform="translate(197.824 17.065)" fill="#ddadad"/>
          <path id="Path_92" data-name="Path 92" d="M707.642,60.92a6.674,6.674,0,0,0-2.8,9.008,6.313,6.313,0,0,0,2.866,2.659l.867-.473-1.766-3.191a1.771,1.771,0,0,1,.686-2.4l3.159-1.744a1.766,1.766,0,0,1,2.393.691l1.765,3.191,2.685-1.484a6.322,6.322,0,0,0-.739-3.85,6.674,6.674,0,0,0-9.12-2.409Z" transform="translate(197.352 16.867)" fill="#999"/>
          <path id="Path_93" data-name="Path 93" d="M713.618,63.688,712.486,62.3a5.249,5.249,0,0,0-6.286-1.01,4.462,4.462,0,0,0-1.739,6.041l1.218,2.2a8.205,8.205,0,0,1,3.962-4.924A14.684,14.684,0,0,1,713.618,63.688Z" transform="translate(197.305 17.051)" fill="gray"/>
          <path id="Path_94" data-name="Path 94" d="M706.008,65.4c-1.228-.234-1.414-2.058-1.414-2.058" transform="translate(197.497 17.802)" fill="#999" stroke="#333" stroke-miterlimit="10" stroke-width="0.83"/>
          <path id="Path_95" data-name="Path 95" d="M707.315,64.019c-1.133-.367-1.218-2.393-1.276-2.313" transform="translate(197.903 17.342)" fill="#999" stroke="#333" stroke-miterlimit="10" stroke-width="0.83"/>
          <path id="Path_96" data-name="Path 96" d="M706.737,64.659a2.589,2.589,0,0,1-1.409-2.058" transform="translate(197.694 17.568)" fill="#999" stroke="#333" stroke-miterlimit="10" stroke-width="0.83"/>
          <path id="Path_97" data-name="Path 97" d="M708.542,63.223c-1.234-.234-1.367-1.808-1.367-1.808" transform="translate(198.223 17.261)" fill="#999" stroke="#333" stroke-miterlimit="10" stroke-width="0.83"/>
          <ellipse id="Ellipse_5" data-name="Ellipse 5" cx="0.479" cy="1" rx="0.479" ry="1" transform="translate(906.955 83.178) rotate(-60.34)"/>
          <path id="Path_98" data-name="Path 98" d="M711.817,65.848c.34.617-.447,1.712-1.765,2.441s-2.659.814-3,.2" transform="translate(198.187 18.507)" fill="none" stroke="#000" stroke-linecap="round" stroke-miterlimit="10" stroke-width="0.415"/>
          <path id="Path_99" data-name="Path 99" d="M718.179,70.553l2.244-6.365-7.631,2.755" transform="translate(199.801 18.04)" fill="none" stroke="#000" stroke-linecap="round" stroke-linejoin="round" stroke-width="1.245"/>
          <path id="Path_100" data-name="Path 100" d="M709.653,87.249c-3.972.532-9.125-1.8-12.465-8.168s-2.127-12.039.383-14.89" transform="translate(194.842 18.041)" fill="none" stroke="#8c6239" stroke-linecap="round" stroke-miterlimit="10" stroke-width="2.076"/>
          <path id="Path_101" data-name="Path 101" d="M697.068,64.208l18.819,2.818-6.812,20.207" transform="translate(195.382 18.046)" fill="none" stroke="#ccc" stroke-linecap="round" stroke-miterlimit="10" stroke-width="0.83"/>
          <path id="Path_102" data-name="Path 102" d="M707.266,66.188l1.212.16-1.755.622" transform="translate(198.096 18.602)" fill="none" stroke="#000" stroke-linecap="round" stroke-linejoin="round" stroke-width="0.415"/>
          <path id="Path_103" data-name="Path 103" d="M698.344,77.837c.728-.181.128-1.8-.1-2.7s-.729-.4-1.457-.218-1.005.612-.782,1.516A2.3,2.3,0,0,0,698.344,77.837Z" transform="translate(195.063 20.971)" fill="#ddadad"/>
          <line id="Line_9" data-name="Line 9" x1="20.824" y2="11.518" transform="translate(889.887 85.796)" fill="none" stroke="#000" stroke-miterlimit="10" stroke-width="0.83"/>
          <path id="Path_104" data-name="Path 104" d="M696.034,76.994l-2.781.33,1.782-2.127" transform="translate(194.31 21.134)" fill="#ccc"/>
          <path id="Path_105" data-name="Path 105" d="M711.844,67.2l-3.015,1.67-.005-1.005,3.015-1.664Z" transform="translate(198.686 18.605)" fill="#e6e6e6"/>
          <path id="Path_106" data-name="Path 106" d="M712.82,67.589,709.8,69.253l-.915-.5,3.01-1.664Z" transform="translate(198.705 18.856)" fill="#e6e6e6"/>
          <path id="Path_107" data-name="Path 107" d="M713.678,67.872c.729-.181,1.111-1.6.3-2.047s-.723-.4-1.457-.213-1.675.787-1.452,1.686S712.95,68.053,713.678,67.872Z" transform="translate(199.308 18.402)" fill="#ddadad" stroke="#000" stroke-miterlimit="10" stroke-width="0.415"/>
          <path id="Path_108" data-name="Path 108" d="M707.779,69.468l.532.947a6.678,6.678,0,0,1-1.388-.473Z" transform="translate(198.152 19.524)" fill="none"/>
          <path id="Path_109" data-name="Path 109" d="M715.144,65.611a6.791,6.791,0,0,1-1.558,3.542,1.371,1.371,0,0,0-.058-.128l-1.064-1.93Z" transform="translate(199.709 18.44)" fill="none"/>
          <path id="Path_110" data-name="Path 110" d="M752.259,73.473h-6.913a2.659,2.659,0,0,0-2.659,2.659v4.786h-6.913V76.132a2.659,2.659,0,0,0-2.659-2.659H726.2a2.659,2.659,0,0,0-2.659,2.659v4.786h-7.977V76.132a2.659,2.659,0,0,0-2.659-2.659h-6.913a2.659,2.659,0,0,0-2.659,2.659v4.786h-8.508V76.132a2.659,2.659,0,0,0-2.659-2.659h-6.913a2.659,2.659,0,0,0-2.659,2.659v4.786h-7.445V76.132a2.659,2.659,0,0,0-2.659-2.659H665.58a2.659,2.659,0,0,0-2.659,2.659V105.38a7.445,7.445,0,0,0,7.445,7.445h77.107a7.445,7.445,0,0,0,7.445-7.445V76.132A2.659,2.659,0,0,0,752.259,73.473Z" transform="translate(185.785 20.65)" fill="#999"/>
          <path id="Path_111" data-name="Path 111" d="M560.872,73.133l5.786,1.569,5.015-.1" transform="translate(157.104 20.554)" fill="none" stroke="#000" stroke-linecap="round" stroke-linejoin="round" stroke-width="0.83"/>
          <path id="Path_112" data-name="Path 112" d="M552,72.24c-3.589,2.781-1.351,8.663,1.936,10.492s7.737.112,9.949-3.85a12.047,12.047,0,0,0-.776-12.034C560.8,63.875,555.59,69.453,552,72.24Z" transform="translate(154.095 18.549)" fill="#ddadad"/>
          <path id="Path_113" data-name="Path 113" d="M557.8,67.041c-1.521,2.723-1.872,5.419.218,6.583s5.009-.09,6.53-2.808,1.064-5.849-1.032-7.035S559.311,64.324,557.8,67.041Z" transform="translate(155.889 17.819)" fill="#ddadad"/>
          <path id="Path_114" data-name="Path 114" d="M557.643,65.29a4.6,4.6,0,0,0-.532,2.792l1.946,1.064,1.287-2.308a1.287,1.287,0,0,1,1.744-.495l2.281,1.276a1.287,1.287,0,0,1,.495,1.744l-1.292,2.308.627.346a4.59,4.59,0,0,0,2.09-1.925,4.945,4.945,0,0,0-8.631-4.823Z" transform="translate(156.036 17.666)" fill="#999"/>
          <path id="Path_115" data-name="Path 115" d="M559.32,65.55l.824-1.005a3.807,3.807,0,0,1,4.563-.713,3.233,3.233,0,0,1,1.244,4.392l-.888,1.6a5.956,5.956,0,0,0-2.861-3.584A11.16,11.16,0,0,0,559.32,65.55Z" transform="translate(156.667 17.811)" fill="gray"/>
          <path id="Path_116" data-name="Path 116" d="M563.521,66.81c.893-.165,1.031-1.489,1.031-1.489" transform="translate(157.848 18.359)" fill="#999" stroke="#333" stroke-miterlimit="10" stroke-width="0.83"/>
          <path id="Path_117" data-name="Path 117" d="M562.553,65.792c.824-.266.893-1.734.936-1.675" transform="translate(157.576 18.02)" fill="#999" stroke="#333" stroke-miterlimit="10" stroke-width="0.83"/>
          <path id="Path_118" data-name="Path 118" d="M563,66.272a1.893,1.893,0,0,0,1.032-1.489" transform="translate(157.701 18.189)" fill="#999" stroke="#333" stroke-miterlimit="10" stroke-width="0.83"/>
          <path id="Path_119" data-name="Path 119" d="M561.682,65.226c.893-.17,1-1.308,1-1.308" transform="translate(157.331 17.964)" fill="#999" stroke="#333" stroke-miterlimit="10" stroke-width="0.83"/>
          <ellipse id="Ellipse_6" data-name="Ellipse 6" cx="0.729" cy="0.351" rx="0.729" ry="0.351" transform="translate(717.227 85.448) rotate(-29.42)"/>
          <path id="Path_120" data-name="Path 120" d="M559.852,67.122c-.25.447.319,1.244,1.271,1.776s1.93.6,2.18.154" transform="translate(156.8 18.865)" fill="none" stroke="#000" stroke-linecap="round" stroke-miterlimit="10" stroke-width="0.415"/>
          <path id="Path_121" data-name="Path 121" d="M555.663,70.52l-1.611-4.626,5.53,2.021" transform="translate(155.187 18.52)" fill="none" stroke="#000" stroke-linecap="round" stroke-linejoin="round" stroke-width="0.83"/>
          <path id="Path_122" data-name="Path 122" d="M562.906,82.667c2.882.378,6.631-1.282,9.072-5.892s1.6-8.726-.234-10.811" transform="translate(157.675 18.539)" fill="none" stroke="#8c6239" stroke-linecap="round" stroke-miterlimit="10" stroke-width="1.245"/>
          <path id="Path_123" data-name="Path 123" d="M572.783,65.977,559.116,67.96,564,82.642" transform="translate(156.61 18.543)" fill="none" stroke="#ccc" stroke-linecap="round" stroke-miterlimit="10" stroke-width="0.415"/>
          <path id="Path_124" data-name="Path 124" d="M562.659,67.38l-.877.112,1.271.463" transform="translate(157.359 18.937)" fill="none" stroke="#000" stroke-linecap="round" stroke-linejoin="round" stroke-width="0.415"/>
          <path id="Path_125" data-name="Path 125" d="M569.259,75.863c-.532-.133-.085-1.308.08-1.962s.532-.287,1.064-.149.723.447.558,1.1a1.665,1.665,0,0,1-1.7,1.01Z" transform="translate(159.39 20.664)" fill="#ddadad"/>
          <line id="Line_10" data-name="Line 10" x2="15.07" y2="8.423" transform="translate(716.136 87.03)" fill="none" stroke="#000" stroke-miterlimit="10" stroke-width="0.415"/>
          <path id="Path_126" data-name="Path 126" d="M570.938,75.257l2.021.245-1.287-1.542" transform="translate(159.933 20.787)" fill="#ccc"/>
          <path id="Path_127" data-name="Path 127" d="M559.536,68.1l2.186,1.223.005-.729-2.186-1.223Z" transform="translate(156.728 18.935)" fill="#e6e6e6"/>
          <path id="Path_128" data-name="Path 128" d="M558.971,68.379l2.18,1.223.67-.362-2.186-1.218Z" transform="translate(156.569 19.118)" fill="#e6e6e6"/>
          <path id="Path_129" data-name="Path 129" d="M558.26,68.583a.873.873,0,0,1-.213-1.484c.585-.335.532-.287,1.063-.154s1.212.58,1.064,1.234S558.792,68.716,558.26,68.583Z" transform="translate(156.217 18.787)" fill="#ddadad" stroke="#000" stroke-miterlimit="10" stroke-width="0.415"/>
          <path id="Path_130" data-name="Path 130" d="M562.218,69.758l-.383.686a4.615,4.615,0,0,0,1.01-.34Z" transform="translate(157.374 19.606)" fill="none"/>
          <path id="Path_131" data-name="Path 131" d="M557.091,66.94a4.94,4.94,0,0,0,1.117,2.574l.048-.09.782-1.4Z" transform="translate(156.041 18.814)" fill="none"/>
          <path id="Path_132" data-name="Path 132" d="M623.992,73.889h-6.913a2.659,2.659,0,0,0-2.659,2.659v4.786h-6.913V76.547a2.659,2.659,0,0,0-2.659-2.659h-6.913a2.659,2.659,0,0,0-2.659,2.659v4.786H587.3V76.547a2.659,2.659,0,0,0-2.659-2.659h-6.913a2.659,2.659,0,0,0-2.659,2.659v4.786H566.56V76.547a2.659,2.659,0,0,0-2.659-2.659h-6.913a2.659,2.659,0,0,0-2.659,2.659v4.786h-7.445V76.547a2.659,2.659,0,0,0-2.659-2.659h-6.913a2.659,2.659,0,0,0-2.659,2.659v29.247a7.445,7.445,0,0,0,7.445,7.445h77.107a7.445,7.445,0,0,0,7.445-7.445V76.547a2.659,2.659,0,0,0-2.659-2.659Z" transform="translate(149.735 20.767)" fill="#999"/>
          <path id="Path_133" data-name="Path 133" d="M470.711,271.5H431.589a16.454,16.454,0,0,0-1.707.085,43.175,43.175,0,0,1,40.829-.085Z" transform="translate(120.288 74.875)" fill="#999"/>
          <path id="Path_134" data-name="Path 134" d="M453.937,389.589c0,23.323-7.062,44.53-18.575,60.287-10.9,14.89-25.791,24.94-42.478,27.253a53.1,53.1,0,0,1-7.445.532c-37.82,0-68.487-39.426-68.487-88.056s30.667-88.061,68.487-88.061a53.087,53.087,0,0,1,7.445.532c11.7,1.6,22.515,7.025,31.694,15.267C442.323,333.222,453.937,359.677,453.937,389.589Z" transform="translate(88.549 84.75)" fill="#999" stroke="#999" stroke-miterlimit="10" stroke-width="0.415"/>
          <path id="Path_135" data-name="Path 135" d="M465.547,389.476c0,28.976-10.891,54.693-27.695,70.726q-3.052-4.945-5.754-10.449c-10.9,14.89-25.791,24.94-42.478,27.253-34.326-4.786-61.058-42.143-61.058-87.54s26.732-82.759,61.058-87.519c11.7,1.6,22.515,7.025,31.694,15.267q1.133-4.509,2.478-8.817C448.334,321.787,465.547,353.05,465.547,389.476Z" transform="translate(91.812 84.863)" fill="#999" stroke="#999" stroke-miterlimit="10" stroke-width="0.415" opacity="0.5"/>
          <path id="Path_136" data-name="Path 136" d="M443.011,312.677l-4.93,59.6-73.3,12.5" transform="translate(101.99 87.879)" fill="none" stroke="#000" stroke-linecap="round" stroke-linejoin="round" stroke-width="4.151"/>
          <path id="Path_137" data-name="Path 137" d="M374.649,386.9c6.339-3.722-3.722-17.224-8.317-25.062s-7.907-1.718-14.251,1.989-7.716,8.508-3.132,16.347S368.305,390.608,374.649,386.9Z" transform="translate(96.781 100.626)" fill="#ddadad"/>
          <rect id="Rectangle_13" data-name="Rectangle 13" width="39.016" height="9.391" transform="translate(672.375 320.642) rotate(24.26)" fill="#999"/>
          <path id="Path_138" data-name="Path 138" d="M546.853,501.341H424.062q-2.707-3.988-5.185-8.418-3.055-5.424-5.754-11.47c-10.635-23.775-17.043-54.129-17.043-86.392a266.8,266.8,0,0,1,6.259-59.149q1.133-4.951,2.478-9.689c11.571-40.691,34.448-68.2,67.583-66.514a92.784,92.784,0,0,1,20.074,2.946c7.636,2.127,13.417,5.318,17.867,9.5,20.564,19.378,12.81,60.452,28.982,119.037C553.314,441.884,562.859,478.235,546.853,501.341Z" transform="translate(110.788 72.972)" fill="#ddadad"/>
          <path id="Path_139" data-name="Path 139" d="M489.566,355.641l57.926-14.874V266.41" transform="translate(137.063 74.875)" fill="none" stroke="#000" stroke-linecap="round" stroke-linejoin="round" stroke-width="4.151"/>
          <path id="Path_140" data-name="Path 140" d="M553.571,273.664c-2.59,6.881-17.607-.776-26.1-3.983s-3.026-7.5-.431-14.358,7.088-9.04,15.581-5.849S556.161,266.788,553.571,273.664Z" transform="translate(146.43 69.711)" fill="#ddadad"/>
          <path id="Path_141" data-name="Path 141" d="M543.548,274.781,427.972,232.128l14.156-31.4,108.816,57.639Z" transform="translate(119.752 56.416)" fill="#e6e6e6"/>
          <path id="Path_142" data-name="Path 142" d="M520.553,230.981c9.46,4.254,13.023,16.825,7.977,28.056s-16.836,16.884-26.291,12.619" transform="translate(140.624 64.918)" fill="none" stroke="#b3b3b3" stroke-linecap="round" stroke-miterlimit="10" stroke-width="2.491"/>
          <ellipse id="Ellipse_7" data-name="Ellipse 7" cx="7.046" cy="8.78" rx="7.046" ry="8.78" transform="translate(700.381 346.172) rotate(-65.74)" fill="#b3b3b3"/>
          <line id="Line_11" data-name="Line 11" x2="100.787" y2="44.956" transform="translate(564.98 277.542)" fill="none" stroke="#999" stroke-miterlimit="10" stroke-width="0.415"/>
          <path id="Path_143" data-name="Path 143" d="M530.63,498.6H481.4q-2.51-3.749-4.828-7.886-3.055-5.424-5.754-11.47c-10.635-23.776-17.017-54.129-17.017-86.392a266.8,266.8,0,0,1,6.259-59.149q1.133-4.951,2.478-9.689c6.727-23.765,17.33-43.01,31.561-54.608,20.564,19.378,12.81,60.452,28.982,119.037C537.091,439.139,546.637,475.49,530.63,498.6Z" transform="translate(127.011 75.717)" fill="#ddadad" opacity="0.5"/>
          <path id="Path_144" data-name="Path 144" d="M551.065,310.938A68.067,68.067,0,0,1,538.8,349.832a16.4,16.4,0,0,0-4.174-.532l-30.917.771V296.442a17.267,17.267,0,0,0-17.219-17.219h-6.28a43.174,43.174,0,0,0-40.829.085,17.3,17.3,0,0,0-15.108,13.438,44.033,44.033,0,0,0-4.648,8.508,43.126,43.126,0,0,0-3.191,16.325v19.947h-14.89a67.5,67.5,0,0,1-5.467-26.589c0-39.771,34.693-72.012,77.5-72.012S551.065,271.151,551.065,310.938Z" transform="translate(110.788 67.151)" fill="#999"/>
          <ellipse id="Ellipse_8" data-name="Ellipse 8" cx="4.696" cy="9.785" rx="4.696" ry="9.785" transform="translate(583.056 353.48) rotate(-18.51)"/>
          <ellipse id="Ellipse_9" data-name="Ellipse 9" cx="9.785" cy="4.696" rx="9.785" ry="4.696" transform="matrix(0.429, -0.903, 0.903, 0.429, 534.461, 369.672)"/>
          <path id="Path_145" data-name="Path 145" d="M433.2,270.449a43.888,43.888,0,0,0-15.108,13.438A17.3,17.3,0,0,1,433.2,270.449Z" transform="translate(116.974 76.011)" fill="#ddadad"/>
          <path id="Path_146" data-name="Path 146" d="M508.439,291.71,505.057,273.1a54.1,54.1,0,0,0-2.962-8.445c-.133-.314-.276-.622-.42-.931-8.593-18.341-27.3-32.066-49.455-32.066a47.168,47.168,0,0,0-44.445,31.763,46.266,46.266,0,0,0-2.542,15.182v26.535c1.9-1.93,3.9-3.765,5.993-5.5,1.478-1.228,3.01-2.414,4.584-3.536a87.444,87.444,0,0,1,51.172-16.224c9.04,0,23.589,5.041,34.161,9.04l.936.356C504.472,290.173,506.631,291.013,508.439,291.71Z" transform="translate(113.361 65.108)" fill="gray"/>
          <path id="Path_147" data-name="Path 147" d="M425.258,267.538c-9.391-7.828-2.345-24.27-2.345-24.27" transform="translate(117.616 68.371)" fill="#999" stroke="#333" stroke-miterlimit="10" stroke-width="0.83"/>
          <path id="Path_148" data-name="Path 148" d="M443.234,261.789c-7.945-8.54.888-26.269,0-25.833" transform="translate(123.102 66.314)" fill="#999" stroke="#333" stroke-miterlimit="10" stroke-width="0.83"/>
          <path id="Path_149" data-name="Path 149" d="M434.946,264.691c-9.4-10.178-.787-29.747-2.35-24.27" transform="translate(120.457 67.304)" fill="#999" stroke="#333" stroke-miterlimit="10" stroke-width="0.83"/>
          <path id="Path_150" data-name="Path 150" d="M457.1,260.928c-9.4-7.828-3.132-21.92-3.132-21.92" transform="translate(126.482 67.174)" fill="#999" stroke="#333" stroke-miterlimit="10" stroke-width="0.83"/>
          <circle id="Ellipse_10" data-name="Ellipse 10" cx="4.696" cy="4.696" r="4.696" transform="translate(533.483 379.637)" fill="#b88c8c"/>
          <circle id="Ellipse_11" data-name="Ellipse 11" cx="4.696" cy="4.696" r="4.696" transform="translate(589.84 374.941)" fill="#b88c8c"/>
          <path id="Path_151" data-name="Path 151" d="M429.371,297.279c0,4.068,6.349,7.673,12.762,9.843a38.281,38.281,0,0,0,10.593,2.159,11.965,11.965,0,0,0,.037-23.93C446.191,285.34,429.377,290.674,429.371,297.279Z" transform="translate(120.145 80.199)" fill="#1a1a1a"/>
          <path id="Path_152" data-name="Path 152" d="M440.4,298.8a11.369,11.369,0,0,0-1.026,6.381,38.283,38.283,0,0,0,10.593,2.159,11.986,11.986,0,0,0,11.3-7.977,11.428,11.428,0,0,0-20.867-.532Z" transform="translate(122.929 82.159)" fill="#f15a24"/>
          <path id="Path_153" data-name="Path 153" d="M434.591,234.333c-16.862-7.764-27.6-21.739-23.685-30.247s21.18-8.891,38.043-1.127" transform="translate(114.728 55.482)" fill="#e6e6e6"/>
        </g>
      </g>
    </g>
  </g>
</svg>
