<svg xmlns="http://www.w3.org/2000/svg" xmlns:xlink="http://www.w3.org/1999/xlink" width="797" height="539" viewBox="0 0 797 539">
  <defs>
    <clipPath id="clip-path">
      <rect id="Rectangle_5" data-name="Rectangle 5" width="797" height="539" transform="translate(960 1222)" fill="#fff" stroke="#707070" stroke-width="1"/>
    </clipPath>
    <clipPath id="clip-path-2">
      <rect id="Rectangle_17" data-name="Rectangle 17" width="981.296" height="551.979" transform="translate(-1.191 0.228)" fill="none"/>
    </clipPath>
    <linearGradient id="linear-gradient" x1="-0.322" y1="0.433" x2="0.901" y2="0.433" gradientUnits="objectBoundingBox">
      <stop offset="0" stop-color="#c9886a"/>
      <stop offset="1" stop-color="#ffcd80"/>
    </linearGradient>
  </defs>
  <g id="Mask_Group_2" data-name="Mask Group 2" transform="translate(-960 -1222)" clip-path="url(#clip-path)">
    <g id="tittelscreen" transform="translate(961.191 1267.115)">
      <g id="Group_6" data-name="Group 6" transform="translate(-21.75 -49.667)" clip-path="url(#clip-path-2)">
        <rect id="Rectangle_15" data-name="Rectangle 15" width="551.979" height="984.23" transform="translate(981.572 -0.053) rotate(90)" fill="url(#linear-gradient)"/>
        <ellipse id="Ellipse_12" data-name="Ellipse 12" cx="80.538" cy="83.809" rx="80.538" ry="83.809" transform="translate(773.823 -41.932) rotate(-9.85)" fill="#d39e89"/>
        <ellipse id="Ellipse_13" data-name="Ellipse 13" cx="80.114" cy="79.725" rx="80.114" ry="79.725" transform="translate(788.43 -55.874)" fill="#f8b99d"/>
        <ellipse id="Ellipse_14" data-name="Ellipse 14" cx="5.101" cy="6.874" rx="5.101" ry="6.874" transform="translate(814.778 77.346) rotate(-63.06)" fill="#f69fa0"/>
        <ellipse id="Ellipse_15" data-name="Ellipse 15" cx="4.641" cy="3.792" rx="4.641" ry="3.792" transform="matrix(0.333, -0.943, 0.943, 0.333, 816.404, 81.712)" fill="#f18181"/>
        <ellipse id="Ellipse_16" data-name="Ellipse 16" cx="82.475" cy="93.98" rx="82.475" ry="93.98" transform="translate(895.075 -17.619)" fill="#f8b99d"/>
        <ellipse id="Ellipse_17" data-name="Ellipse 17" cx="6.23" cy="7.14" rx="6.23" ry="7.14" transform="translate(934.332 154.162) rotate(-48.27)" fill="#f69fa0"/>
        <circle id="Ellipse_18" data-name="Ellipse 18" cx="4.073" cy="4.073" r="4.073" transform="translate(937.04 153.147)" fill="#f18181"/>
        <path id="Path_154" data-name="Path 154" d="M552.325,352.611s67.745,62.532,67.975,76.122l98.574-115.2S677.251,278.83,669.7,258.473C669.7,258.473,662.215,376.264,552.325,352.611Z" transform="translate(127.994 59.716)" fill="#f8b99d"/>
        <path id="Path_155" data-name="Path 155" d="M417.236,236.484l112.8,126.373s57.677,56.527,84.33,39.865c0,0,35.664-6.562,53.338-27.21s39.7-52.591,36.768-80.149c0,0-8.142-108.219-12.65-113.273L651.214,136.6s-20.7-17.122-34.872-4.687c0,0-5.208,16.411,7.406,28.519L649.037,192.8l4.6,13.232L522.8,61.486s-14.311-1.871-24.021,9.486c0,0-8.816,12.368-3.368,22.519l87.57,102.162-4.4,7.206L474.826,86.6s-12.542-3.941-22.7,7.937c0,0-9.3,8.8-3.823,20.991L550.32,235.9l-7.068,8.259-86.63-95.007s-17.888-1.83-25.831,7.462c0,0-5.188,18.456,2.014,24.5l86.651,101.125-75.693-74.691s-14.341-5.954-20.49,5.356C423.272,212.907,412.611,219.168,417.236,236.484Z" transform="translate(96.487 14.139)" fill="#f6bb9f"/>
        <path id="Path_156" data-name="Path 156" d="M516.63,360.169s68.772,47.874,118.108-7.9c0,0,55.1-57.784,28.662-170.194l-37.489-42s-9.889-19.56-32.914-9.619c0,0-6.174.613.813-11.321,0,0,13.559-29.04,69.176,40.8l8.551,8.714s21.19,116.825,3.93,145.482c0,0-17.638,70.582-81.008,80.517C594.444,394.648,534.355,393.2,516.63,360.169Z" transform="translate(119.74 26.112)" fill="#f7ac8a"/>
        <path id="Path_157" data-name="Path 157" d="M601.885,345.957c-6.951-7.993-14.97-15.179-20.664-24.2s-8.586-19.682-9.246-30.333c-1.365-22.115,6.808-42.932,17.689-61.755,5.745-9.936,11.678-19.9,13.968-31.289.327-1.6-2.136-2.295-2.463-.68-2.193,10.891-7.774,20.444-13.288,29.93s-10.482,19.33-13.85,29.843c-6.46,20.157-7.237,43.545,3.194,62.563,5.816,10.605,14.99,18.7,22.846,27.722,1.078,1.247,2.883-.567,1.8-1.8Z" transform="translate(131.91 45.451)" fill="#f0ad91"/>
        <path id="Path_158" data-name="Path 158" d="M608.569,214.305a48.482,48.482,0,0,0,4.7-25.892c-.153-1.625-2.709-1.641-2.555,0a46.106,46.106,0,0,1-4.354,24.6c-.721,1.467,1.482,2.765,2.208,1.288Z" transform="translate(140.456 43.232)" fill="#f0ad91"/>
        <path id="Path_159" data-name="Path 159" d="M496.306,294.877c34.667-19.2,61.449-50.951,77.686-86.835a209.563,209.563,0,0,0,11.7-32.986,1.279,1.279,0,0,0-2.463-.68c-10.125,38.434-31.35,74.246-61.786,100.041a163.221,163.221,0,0,1-26.423,18.266c-1.436.8-.153,3.005,1.288,2.2Z" transform="translate(114.597 40.06)" fill="#f0ad91"/>
        <path id="Path_160" data-name="Path 160" d="M462.512,243.342c2.259-6.5,7.12-12,13.8-14.024a1.281,1.281,0,0,0-.68-2.469c-7.579,2.295-13.043,8.453-15.6,15.813-.542,1.533,1.927,2.223,2.463.68Z" transform="translate(106.635 52.389)" fill="#f0ad91"/>
        <path id="Path_161" data-name="Path 161" d="M439.528,217.766c2.213-1.569,3.128-3.9,4.089-6.358a12.342,12.342,0,0,1,2.315-4.421c1.533-1.574,3.874-1.855,5.949-2.136,1.62-.225.93-2.688-.68-2.469-3.424.475-6.5,1.411-8.367,4.513-1.63,2.714-1.866,6.746-4.6,8.689-1.329.945-.051,3.159,1.293,2.2Z" transform="translate(101.482 46.742)" fill="#f0ad91"/>
        <path id="Path_162" data-name="Path 162" d="M488.5,220.744a47.878,47.878,0,0,1,15.506-19.723c1.319-.956.046-3.174-1.288-2.2a50.21,50.21,0,0,0-16.426,20.638c-.654,1.492,1.533,2.8,2.208,1.288Z" transform="translate(112.697 45.866)" fill="#f0ad91"/>
        <path id="Path_163" data-name="Path 163" d="M455.32,176.435a33.174,33.174,0,0,1,11.929-10.692c1.457-.767.164-2.975-1.288-2.208a35.945,35.945,0,0,0-12.849,11.612c-.935,1.354,1.278,2.637,2.208,1.288Z" transform="translate(105 37.726)" fill="#f0ad91"/>
        <path id="Path_164" data-name="Path 164" d="M515.065,178.82q3.067-4.733,6.4-9.292c.618-.848,7.36-8.627,6.91-9.246.956,1.319,3.174.046,2.208-1.288-2.694-3.705-6.608,3.067-8.029,4.876q-5.111,6.644-9.711,13.661c-.9,1.38,1.308,2.663,2.208,1.288Z" transform="translate(118.816 36.46)" fill="#f0ad91"/>
        <path id="Path_165" data-name="Path 165" d="M474.85,130.679a25.447,25.447,0,0,1,10.1-10.053c1.446-.777.159-2.985-1.293-2.208a27.972,27.972,0,0,0-11.014,10.973,1.279,1.279,0,0,0,2.208,1.288Z" transform="translate(109.527 27.292)" fill="#f0ad91"/>
        <path id="Path_166" data-name="Path 166" d="M550.806,151.675a39.21,39.21,0,0,1,12.363-11.924c1.406-.843.123-3.067-1.288-2.2a42.157,42.157,0,0,0-13.288,12.834c-.915,1.37,1.3,2.653,2.208,1.293Z" transform="translate(127.08 31.708)" fill="#f0ad91"/>
        <path id="Path_167" data-name="Path 167" d="M511.377,112.733A65.7,65.7,0,0,1,526.924,96.95c1.324-.951.051-3.169-1.293-2.208a69.508,69.508,0,0,0-16.462,16.7C508.218,112.789,510.436,114.066,511.377,112.733Z" transform="translate(117.961 21.8)" fill="#f0ad91"/>
        <path id="Path_168" data-name="Path 168" d="M583.678,112.614l10.115,11.331s10.907,4.227,16.57-.848c0,0-2.387-7.237-16.713-9.016Z" transform="translate(135.244 25.988)" fill="#fcd7c8"/>
        <path id="Path_169" data-name="Path 169" d="M607.584,419.936l7.411,8.3,98.544-115.18s-11.8-10.222-14.208-15.915S607.584,419.936,607.584,419.936Z" transform="translate(140.772 68.615)" fill="#f6af88"/>
        <path id="Path_170" data-name="Path 170" d="M604.383,443.847,722.967,298.829l139.85,124.252L720.9,598.319Z" transform="translate(140.032 69.048)" fill="#7dc9d8"/>
        <path id="Path_171" data-name="Path 171" d="M688.662,573.177l22.166,28.866L868.367,413.5l-28.212-22.59Z" transform="translate(159.52 90.341)" fill="#6fb7c1"/>
        <path id="Path_172" data-name="Path 172" d="M142.507,420.411h0c52.32,17.638,114.306-3.915,138.455-48.135l86.63-158.643c24.144-44.22,1.308-94.368-51.007-112.006h0c-52.315-17.638-114.3,3.915-138.45,48.135L91.5,308.406C67.35,352.625,90.191,402.774,142.507,420.411Z" transform="translate(19.208 22.024)" fill="#f1c39c"/>
        <ellipse id="Ellipse_19" data-name="Ellipse 19" cx="111.06" cy="98.671" rx="111.06" ry="98.671" transform="translate(210.268 58.534)" fill="#f9b29f"/>
        <ellipse id="Ellipse_20" data-name="Ellipse 20" cx="117.689" cy="109.92" rx="117.689" ry="109.92" transform="translate(100.533 403.673) rotate(-16.26)" fill="#edb698"/>
        <ellipse id="Ellipse_21" data-name="Ellipse 21" cx="117.689" cy="109.92" rx="117.689" ry="109.92" transform="translate(96.524 404.842) rotate(-16.26)" fill="#edb698"/>
        <ellipse id="Ellipse_22" data-name="Ellipse 22" cx="124.063" cy="112.916" rx="124.063" ry="112.916" transform="matrix(0.597, -0.803, 0.803, 0.597, -52.073, 495.738)" fill="#f1b287"/>
        <path id="Path_173" data-name="Path 173" d="M574.138,384.658l-48.712,4.089a49.734,49.734,0,0,1-53.752-45.313L453.949,133.17a49.7,49.7,0,0,1,45.4-53.665l48.712-4.089a49.734,49.734,0,0,1,53.747,45.344l17.73,210.263a49.7,49.7,0,0,1-45.4,53.634Z" transform="translate(105.205 17.345)" fill="#191817"/>
        <path id="Path_174" data-name="Path 174" d="M559.992,366.237l-28.161,2.371a49.729,49.729,0,0,1-53.746-45.339L462.94,143.652a49.709,49.709,0,0,1,45.4-53.665L536.5,87.621a49.734,49.734,0,0,1,53.752,45.339l15.144,179.618A49.7,49.7,0,0,1,559.992,366.237Z" transform="translate(107.284 20.167)" fill="#fffeff"/>
        <ellipse id="Ellipse_23" data-name="Ellipse 23" cx="10.626" cy="13.922" rx="10.626" ry="13.922" transform="matrix(0.996, -0.084, 0.084, 0.996, 628.445, 352.927)" fill="#3a3a3a"/>
        <ellipse id="Ellipse_24" data-name="Ellipse 24" cx="10.626" cy="13.922" rx="10.626" ry="13.922" transform="matrix(0.996, -0.084, 0.084, 0.996, 656.607, 350.559)" fill="#3a3a3a"/>
        <path id="Path_175" data-name="Path 175" d="M518.279,292.65l-4.314.363a1.6,1.6,0,0,0-.8,1.329c0,.869.843,10.007.843,10.007a1.022,1.022,0,0,0,1.094.782l13.667-1.15a1.171,1.171,0,0,0,.577-1.257c-.235-.787-.8-9.813-.8-9.813a1.145,1.145,0,0,0-1.365-1.022C525.941,292.057,518.279,292.65,518.279,292.65Z" transform="translate(118.939 67.438)" fill="#fff"/>
        <path id="Path_176" data-name="Path 176" d="M517.275,292.678l5.111-.429s.215-1.533-1.022-1.472-3.4.286-3.4.286S516.728,291.191,517.275,292.678Z" transform="translate(119.857 67.185)" fill="#fff"/>
        <rect id="Rectangle_16" data-name="Rectangle 16" width="2.561" height="1.273" transform="translate(643.683 360.747) rotate(-4.82)"/>
        <ellipse id="Ellipse_25" data-name="Ellipse 25" cx="3.297" cy="3.881" rx="3.297" ry="3.881" transform="matrix(0.997, -0.08, 0.08, 0.997, 637.215, 366.579)"/>
        <ellipse id="Ellipse_26" data-name="Ellipse 26" cx="2.815" cy="3.312" rx="2.815" ry="3.312" transform="matrix(0.997, -0.08, 0.08, 0.997, 637.74, 367.108)" fill="#fff"/>
        <ellipse id="Ellipse_27" data-name="Ellipse 27" cx="2.382" cy="2.801" rx="2.382" ry="2.801" transform="matrix(0.996, -0.085, 0.085, 0.996, 637.575, 363.374)"/>
        <path id="Path_177" data-name="Path 177" d="M551.865,259.452h0c-14.162,6.6-30.6-1.211-36.722-17.449l-21.977-58.264c-6.133-16.242.394-34.754,14.556-41.358h0c14.162-6.6,30.6,1.211,36.727,17.454L566.426,218.1C572.544,234.322,566.027,252.838,551.865,259.452Z" transform="translate(113.781 32.329)" fill="#f1c39c"/>
        <ellipse id="Ellipse_28" data-name="Ellipse 28" cx="27.563" cy="31.376" rx="27.563" ry="31.376" transform="matrix(0.996, -0.085, 0.085, 0.996, 593.977, 152.648)" fill="#fdcc9e"/>
        <ellipse id="Ellipse_29" data-name="Ellipse 29" cx="29.47" cy="40.376" rx="29.47" ry="40.376" transform="matrix(0.996, -0.084, 0.084, 0.996, 612.773, 265.298)" fill="#e5c6b5"/>
        <ellipse id="Ellipse_30" data-name="Ellipse 30" cx="28.953" cy="42.753" rx="28.953" ry="42.753" transform="matrix(0.996, -0.084, 0.084, 0.996, 645.644, 257.732)" fill="#c9a68f"/>
        <g id="Group_3" data-name="Group 3" transform="translate(584.556 131.645)">
          <path id="Path_178" data-name="Path 178" d="M502.143,310.266l-19.58-38.618,77.205-164.684,19.58,38.613Z" transform="translate(-472.694 -106.964)" fill="#ed1c2b"/>
          <path id="Path_179" data-name="Path 179" d="M591.076,261.512l-12.839,41.337L474.547,153.375l12.834-41.342Z" transform="translate(-474.547 -105.792)" fill="#ed1c2b"/>
        </g>
        <path id="Path_180" data-name="Path 180" d="M539.291,298.946l.281,3.337,1.676-1.825Z" transform="translate(124.98 69.075)" fill="#3ec0ee"/>
        <ellipse id="Ellipse_31" data-name="Ellipse 31" cx="5.438" cy="7.104" rx="5.438" ry="7.104" transform="matrix(0.996, -0.084, 0.084, 0.996, 662.352, 356.92)" fill="#3ec0ee"/>
        <path id="Path_181" data-name="Path 181" d="M540.08,298.521l2.233-4.651,1.63,1.62,2.377-2.336-2.239,4.651-1.687-1.533Z" transform="translate(125.162 67.736)" fill="#fff"/>
        <path id="Path_182" data-name="Path 182" d="M78.531,361.606a13.309,13.309,0,0,0-2.208-14.418c-1.063-1.145-2.443-1.911-3.516-3.031a6.39,6.39,0,0,1-1.533-5.142c.169-3.067.874-5.97.133-9.016-.388-1.595-2.857-.92-2.463.68,1.181,4.866-2.044,10.4,1.533,14.7,1.809,2.193,4.319,3.3,5.622,5.964a10.7,10.7,0,0,1,.21,8.97c-.654,1.492,1.533,2.8,2.208,1.293Z" transform="translate(16.168 76.045)" fill="#282625"/>
        <path id="Path_183" data-name="Path 183" d="M59.634,390.788a8.581,8.581,0,0,0,.087-10.825,7.814,7.814,0,0,0-5.228-2.913c-1.615-.256-3.363-.373-4.022-2.136a3.261,3.261,0,0,1,1.089-3.8c1.349-.925.072-3.138-1.288-2.208-3.113,2.131-3.578,7.2-.266,9.471,2.3,1.584,5.438.618,7.436,2.816a6.055,6.055,0,0,1,.388,7.784C56.772,390.225,58.571,392.045,59.634,390.788Z" transform="translate(11.31 85.201)" fill="#282625"/>
        <path id="Path_184" data-name="Path 184" d="M75.616,389.67a23.418,23.418,0,0,0,9.317,13.723c1.247.869,2.883,1.6,3.629,2.995s.511,2.949.511,4.385c0,2.218.164,4.308,1.881,5.883,1.211,1.114,3.026-.69,1.809-1.8-1.917-1.758-.9-5.014-1.252-7.339a6.92,6.92,0,0,0-2.877-4.687c-2.285-1.738-4.6-3.138-6.45-5.392a21.083,21.083,0,0,1-4.089-8.464c-.388-1.595-2.852-.92-2.463.68Z" transform="translate(17.755 89.681)" fill="#282625"/>
        <path id="Path_185" data-name="Path 185" d="M63.716,406.494c-2.555,3.542-1.1,7.953,1.022,11.31,1.344,2.111,3.118,4.181,3.736,6.644.557,2.223-.22,5.7-3.005,5.862-1.635.1-1.646,2.652,0,2.555,4.165-.24,6.338-4.6,5.622-8.418-.976-5.269-9.138-11.157-5.188-16.672.961-1.339-1.252-2.617-2.2-1.293Z" transform="translate(14.695 93.813)" fill="#282625"/>
        <path id="Path_186" data-name="Path 186" d="M45.9,420.126l-7.937-26.219a1.278,1.278,0,0,0-2.463.68l7.937,26.219A1.279,1.279,0,0,0,45.9,420.126Z" transform="translate(8.469 90.826)" fill="#282625"/>
        <path id="Path_187" data-name="Path 187" d="M57.648,334.42A17.714,17.714,0,0,1,68.57,321.055c2.959-1.119,10.074-3.251,7.237-7.784-.874-1.39-3.067-.107-2.208,1.288,1.39,2.218-5.249,3.833-6.373,4.293a19.9,19.9,0,0,0-5.418,3.348,20.111,20.111,0,0,0-6.644,11.541c-.3,1.61,2.162,2.3,2.463.68Z" transform="translate(13.026 72.249)" fill="#282625"/>
        <path id="Path_188" data-name="Path 188" d="M110.365,336.252a8.868,8.868,0,0,0,6.644-2.918H115.2c3.189,3.91,10.161,2.147,11.213-2.739.348-1.6-2.116-2.29-2.463-.68a4.031,4.031,0,0,1-6.941,1.61,1.293,1.293,0,0,0-1.809,0,6.317,6.317,0,0,1-4.845,2.172,1.279,1.279,0,0,0,0,2.555Z" transform="translate(25.509 76.023)" fill="#282625"/>
        <path id="Path_189" data-name="Path 189" d="M97.114,341.07a12.435,12.435,0,0,1,.741-10.447c1.957-3.527,5.412-4.6,8.4-6.982,2.009-1.589,3.266-3.777,2.7-6.394-.465-2.162-2.044-3.915-4.375-3.726-1.625.138-1.641,2.694,0,2.555,1.743-.143,2.244,2.07,1.814,3.45-.511,1.6-2.3,2.586-3.665,3.389A19.2,19.2,0,0,0,96.8,327.6a14.929,14.929,0,0,0-2.152,14.152C95.213,343.283,97.687,342.619,97.114,341.07Z" transform="translate(21.954 72.442)" fill="#282625"/>
        <path id="Path_190" data-name="Path 190" d="M103.858,361.567a27.737,27.737,0,0,0,5.755,22.365c1.022,1.283,2.826-.511,1.809-1.809a24.957,24.957,0,0,1-5.111-19.876c.286-1.6-2.177-2.295-2.463-.68Z" transform="translate(24.191 83.342)" fill="#282625"/>
        <path id="Path_191" data-name="Path 191" d="M112.309,405.785c6.67-3.312,7.5,23.434,7.406,26.5-.046,1.646,2.509,1.641,2.555,0a76.152,76.152,0,0,0-2.346-21.813c-1.022-3.838-4.273-9.2-8.9-6.895-1.472.731-.179,2.939,1.288,2.208Z" transform="translate(25.798 93.141)" fill="#282625"/>
        <path id="Path_192" data-name="Path 192" d="M103.571,450.541c-1.262-3.808.859-7.36,1.917-10.948a22.667,22.667,0,0,0,.859-8.259,23.832,23.832,0,0,0-6.777-14.822c-1.155-1.17-2.964.634-1.809,1.809a21.2,21.2,0,0,1,6.072,16.058c-.322,5.714-4.636,11.07-2.724,16.866.511,1.533,2.985.889,2.463-.68Z" transform="translate(22.796 96.173)" fill="#282625"/>
        <path id="Path_193" data-name="Path 193" d="M30.031,368.882V344.146a1.278,1.278,0,0,0-2.555,0v24.737A1.278,1.278,0,0,0,30.031,368.882Z" transform="translate(6.629 79.241)" fill="#282625"/>
        <path id="Path_194" data-name="Path 194" d="M185.761,331.253a15.982,15.982,0,0,0,8.474,16.651c1.462.746,2.76-1.457,1.288-2.2a13.421,13.421,0,0,1-7.278-13.769c.235-1.61-2.228-2.305-2.463-.68Z" transform="translate(43.187 76.331)" fill="#282625"/>
        <path id="Path_195" data-name="Path 195" d="M215.755,306.308c-4.022,6.133-.557,13.391,2.6,19.074,2.806,5.06,6.757,13.493.961,17.975-1.3,1.022.511,2.806,1.8,1.809,4.9-3.787,4.089-10.549,2.08-15.7-2.555-6.593-9.971-14.673-5.239-21.875.9-1.38-1.308-2.663-2.208-1.288Z" transform="translate(49.746 70.641)" fill="#282625"/>
        <path id="Path_196" data-name="Path 196" d="M199.732,382.2c3.337-8.034,13.288-19.018,4.676-27.338-1.181-1.145-2.99.659-1.809,1.8,7.416,7.186-2.469,17.965-5.331,24.86-.629,1.533,1.84,2.177,2.463.675Z" transform="translate(45.868 81.919)" fill="#282625"/>
        <path id="Path_197" data-name="Path 197" d="M237.34,380.7a19.565,19.565,0,0,1-3.772-20.847c.634-1.492-1.564-2.8-2.208-1.288a22.222,22.222,0,0,0,4.176,23.929c1.124,1.2,2.929-.608,1.8-1.809Z" transform="translate(53.358 82.705)" fill="#282625"/>
        <path id="Path_198" data-name="Path 198" d="M238.14,338.343c-3.409,5.959-.434,12.338,2.555,17.781,3.067,5.586,8.663,12.987,5.356,19.585-.736,1.467,1.467,2.76,2.2,1.288,3.1-6.169.026-12.527-3.041-18.052s-8.556-12.89-4.881-19.314a1.279,1.279,0,0,0-2.208-1.288Z" transform="translate(54.991 78.041)" fill="#282625"/>
        <path id="Path_199" data-name="Path 199" d="M220.352,405.258c10.7,4.334,14.914,18.91,8.6,28.406-.91,1.375,1.3,2.652,2.208,1.288,7.309-11.009,2-27.241-10.13-32.158C219.5,402.176,218.845,404.649,220.352,405.258Z" transform="translate(51.032 93.066)" fill="#282625"/>
        <path id="Path_200" data-name="Path 200" d="M207.767,382.674a48.1,48.1,0,0,1,5.223,20.372c.056,1.641,2.612,1.646,2.555,0a51.166,51.166,0,0,0-5.571-21.66c-.746-1.467-2.949-.174-2.208,1.288Z" transform="translate(48.284 87.989)" fill="#282625"/>
        <path id="Path_201" data-name="Path 201" d="M193.927,398.313l4.334,10.35,1.968,4.7c.394.935.818,1.871,1.186,2.821l.3.756a1.789,1.789,0,0,1-.348,2.228,1.279,1.279,0,0,0-2.463.68,2.647,2.647,0,0,0,3.317,1.871c1.819-.424,2.525-2.172,2.336-3.895-.353-3.281-2.555-6.823-3.828-9.844l-4.314-10.35c-.624-1.492-3.1-.838-2.463.68Z" transform="translate(45.1 91.7)" fill="#282625"/>
        <path id="Path_202" data-name="Path 202" d="M192.375,418.593c-2.469,4.518.179,9.108,3.46,12.4,3.654,3.675,11.755,7.7,9.537,14.035-.537,1.533,1.927,2.223,2.463.68,1.625-4.692-1.411-8.857-4.748-11.9-3.542-3.235-11.689-8.1-8.5-13.927.792-1.446-1.416-2.734-2.208-1.293Z" transform="translate(44.536 96.596)" fill="#282625"/>
        <path id="Path_203" data-name="Path 203" d="M253.1,413.839a19.039,19.039,0,0,0-2.382-24.175c-1.181-1.145-2.99.659-1.8,1.809a16.513,16.513,0,0,1,1.983,21.077C249.949,413.9,252.167,415.178,253.1,413.839Z" transform="translate(57.744 89.968)" fill="#282625"/>
        <path id="Path_204" data-name="Path 204" d="M271.7,391.088a21.338,21.338,0,0,0-5.811-22.9c-1.222-1.094-3.036.705-1.809,1.8a18.839,18.839,0,0,1,5.157,20.413c-.557,1.533,1.911,2.218,2.463.68Z" transform="translate(61.247 85.008)" fill="#282625"/>
        <path id="Path_205" data-name="Path 205" d="M193.733,439.939a28.621,28.621,0,0,1-24.3-7.288c-1.2-1.119-3.01.68-1.8,1.8a31.34,31.34,0,0,0,26.781,7.947c1.615-.276.93-2.739-.68-2.463Z" transform="translate(38.946 99.911)" fill="#282625"/>
        <path id="Path_206" data-name="Path 206" d="M148.19,381.311c-5.719-4.273-3.961-14.74,2.729-17.045a1.344,1.344,0,0,0,.935-1.232,5.453,5.453,0,0,0-1.814-4.666c-1.2-1.124-3.01.68-1.809,1.8a3.225,3.225,0,0,1,1.068,2.862l.94-1.232c-8.913,3.067-10.84,16.1-3.343,21.716,1.319.986,2.6-1.232,1.293-2.208Z" transform="translate(33.171 82.733)" fill="#282625"/>
        <path id="Path_207" data-name="Path 207" d="M178.132,186.293c1.022,4.37-1.268,8.234-3.578,11.755-2.244,3.4-4.7,6.711-6,10.621-2.555,7.769-.787,19.933-9.915,23.781-1.533.639-.21,2.842,1.288,2.208,9.68-4.089,8.392-16.13,10.835-24.481,2.463-8.433,12.128-15.006,9.844-24.573-.383-1.6-2.847-.925-2.463.68Z" transform="translate(36.802 42.654)" fill="#e0b696"/>
        <path id="Path_208" data-name="Path 208" d="M182.458,236.872c-1.927,4.5-.286,8.689,1.825,12.808a45.856,45.856,0,0,1,3.45,7.416,19.889,19.889,0,0,1-.189,10.426c-2.1,8.689-7.416,20.725,1.17,27.783,1.257,1.022,3.067-.762,1.8-1.8-8.51-7-1.319-19.565.051-28.018a21.164,21.164,0,0,0-2.106-13.263c-2.044-4.17-5.867-9.23-3.8-14.055.639-1.5-1.559-2.8-2.208-1.293Z" transform="translate(42.269 54.566)" fill="#e0b696"/>
        <path id="Path_209" data-name="Path 209" d="M234.742,295.605c-2.09-17.122,6.414-32.015,19.708-42.221,1.942-1.492,4.39-3.067,4.452-5.816.036-1.533-.818-2.729-1.467-4.017a7.728,7.728,0,0,1-.261-6.4c2.474-6.879,9.961-10.283,12.777-17.07.629-1.533-1.845-2.182-2.463-.68-2.9,6.992-10.871,10.293-13.023,17.806-.884,3.128-.189,5.453,1.13,8.275.792,1.7.93,2.555-.4,4.058a13.907,13.907,0,0,1-2.044,1.625c-1.4,1.078-2.775,2.182-4.089,3.353-11.816,10.447-18.813,25.136-16.866,41.077.2,1.615,2.755,1.635,2.555,0Z" transform="translate(53.892 50.484)" fill="#e0b696"/>
        <path id="Path_210" data-name="Path 210" d="M129.556,270.224a24.078,24.078,0,0,1,7.738-21.129c2.044-1.825,4.5-3.031,6.762-4.569,4.441-3.015,6.062-7.406,7.922-12.23l7.043-18.261c.593-1.533-1.876-2.2-2.463-.68l-7.227,18.726c-1.16,3.01-2.172,6.3-4.528,8.622-2.187,2.162-5.162,3.368-7.605,5.2a26.641,26.641,0,0,0-10.12,25c.23,1.62,2.693.93,2.463-.68Z" transform="translate(29.598 49.084)" fill="#e0b696"/>
        <path id="Path_211" data-name="Path 211" d="M313,58.5a89.1,89.1,0,0,1-26.183,40.3c-1.237,1.089.578,2.893,1.8,1.809a91.7,91.7,0,0,0,26.848-41.434c.511-1.574-1.978-2.249-2.469-.68Z" transform="translate(66.503 13.269)" fill="#ccab96"/>
        <g id="Group_4" data-name="Group 4" transform="translate(95.998 39.537)">
          <path id="Path_212" data-name="Path 212" d="M77.745,252.631v-91.3c3.629-7.406,7.513-15.026,11.663-22.708,4.508,8.581,9.2,18.333,13.927,29.05,5.259,12.092,9.793,25.994,14.05,40.729l.291-.118c-2.7-20.076-4.7-39.865-6.414-59.583q-1.773-20.786-3.486-41.163c3.874-5.985,7.993-11.929,12.266-17.576q6.971,78.233,14.311,161.357l-16.263.373c-6.031-17.275-12.1-33.395-18.072-48.043-4.533-11.178-8.842-21.583-12.2-31.836-.092.179-.133.271-.225.455,1.022,15.333,1.9,31,2.693,46.826q.8,16.508,1.641,33.221Z" transform="translate(-77.745 -18.786)" fill="#fff"/>
          <path id="Path_213" data-name="Path 213" d="M138.208,69.669q4.308,54.4,8.561,110.074c1.022,11.489,3.245,50.087,16.478,48.482,13.8-1.7,10.564-45.273,10.043-57.309q-3.322-61.556-6.787-122.468a154.862,154.862,0,0,1,18.818-9.072q2.448,62.108,4.758,124.507c.767,26.127,3.879,102.116-24.951,101.707-27.159-.879-32.122-57.881-34.448-82.015q-4.222-49.418-8.423-97.419C127.444,80.336,132.724,74.887,138.208,69.669Z" transform="translate(-67.452 -30.484)" fill="#fff"/>
          <path id="Path_214" data-name="Path 214" d="M187.266,39.074c8.622-5.392,17.745-7.063,26.848-6.91,15.082.225,27.655,13.288,34.754,31.647,10.564,27.369,11.1,58.878,9.711,86.615-1.457,28.923-5.08,60.345-16.079,86.375-7.206,17.014-18.967,28.7-32.756,28.769a45.211,45.211,0,0,1-17.714-3.266Q189.8,150.538,187.266,39.074Zm20.377,184.969c1.4,1.022,3.654.976,5.663,1.022,23.321.429,26.066-55.581,26.791-77.5.7-21.543.71-73.4-24.129-75.493-4.278-.245-7.058.808-8.689,1.85Q207.459,148.959,207.643,224.043Z" transform="translate(-52.419 -32.155)" fill="#fff"/>
          <path id="Path_215" data-name="Path 215" d="M296.067,187.759c-8.31-4.3-16.815-8.065-25.452-11.489q-1.712,23-3.409,46.238c9.506,1.727,18.91,3.705,28.284,5.872q-1.349,15.384-2.714,30.921-21.89-.378-43.821-.557,6.1-104.7,12.67-207.11c16.191,11.525,30.773,26.122,44.26,43l-2.653,29.822a255.574,255.574,0,0,0-26.924-23.648q-1.533,19.866-3.026,39.865a264.24,264.24,0,0,1,25.483,16.467Q297.416,172.38,296.067,187.759Z" transform="translate(-38.155 -27.65)" fill="#fff"/>
          <path id="Path_216" data-name="Path 216" d="M291.315,229.485c11.862-29.132,24.19-54.774,36.62-73.117a4.263,4.263,0,0,1,.036-.675q-11.372-15.951-24.354-30.947,1.232-13.922,2.438-27.671c14.254,20.863,25.825,42.191,36.288,62.864l-.026,11.755c-10,12.476-19.933,30.8-29.884,51.958-.026.312-.041.47-.066.782,10.171,2.9,20.239,5.913,30.282,8.893v16.733q-26.51-.659-53.077-1.191Q290.452,239.165,291.315,229.485Z" transform="translate(-28.762 -17.142)" fill="#fff"/>
        </g>
        <g id="Group_5" data-name="Group 5" transform="translate(87.325 33.215)">
          <path id="Path_217" data-name="Path 217" d="M70.7,247.5V156.2c3.629-7.411,7.508-15.026,11.663-22.708,4.508,8.576,9.2,18.333,13.927,29.05,5.259,12.092,9.793,25.994,14.05,40.729l.286-.118c-2.7-20.076-4.692-39.865-6.409-59.583q-1.774-20.786-3.491-41.163c3.879-5.985,8-11.929,12.266-17.576q6.966,78.228,14.311,161.357l-16.263.373c-6.031-17.275-12.1-33.395-18.072-48.043-4.533-11.183-8.842-21.589-12.2-31.841l-.22.45c1.022,15.333,1.9,31,2.688,46.826q.8,16.513,1.641,33.221Z" transform="translate(-70.701 -13.652)" fill="#100f0f"/>
          <path id="Path_218" data-name="Path 218" d="M131.156,64.529q4.314,54.406,8.566,110.074c1.022,11.494,3.245,50.087,16.478,48.487,13.8-1.7,10.559-45.278,10.038-57.309q-3.312-61.556-6.787-122.468a155.609,155.609,0,0,1,18.818-9.072q2.448,62.1,4.763,124.507c.767,26.122,3.874,102.116-24.952,101.707-27.165-.859-32.122-57.861-34.442-82.02Q119.411,129,115.22,81.012C120.4,75.2,125.662,69.768,131.156,64.529Z" transform="translate(-60.406 -25.35)" fill="#100f0f"/>
          <path id="Path_219" data-name="Path 219" d="M180.217,33.924c8.643-5.382,17.75-7.048,26.853-6.895,15.077.22,27.655,13.288,34.754,31.642,10.559,27.374,11.1,58.883,9.711,86.62-1.457,28.923-5.08,60.345-16.074,86.375-7.211,17.009-18.972,28.7-32.761,28.769a45.083,45.083,0,0,1-17.709-3.271Q182.753,145.408,180.217,33.924Zm20.367,184.985c1.39,1.022,3.654.976,5.663,1.022,23.316.429,26.066-55.581,26.786-77.5.7-21.543.71-73.4-24.129-75.493a14.4,14.4,0,0,0-8.689,1.845Q200.411,143.849,200.584,218.908Z" transform="translate(-45.376 -27.02)" fill="#100f0f"/>
          <path id="Path_220" data-name="Path 220" d="M289.043,182.626c-8.315-4.3-16.815-8.07-25.452-11.494q-1.717,23.03-3.409,46.244c9.5,1.722,18.91,3.7,28.284,5.872q-1.36,15.379-2.714,30.921-21.885-.378-43.821-.557,6.077-104.7,12.639-207.12c16.191,11.525,30.773,26.122,44.261,43L296.2,119.327A255.038,255.038,0,0,0,269.28,95.679q-1.533,19.866-3.031,39.865a263.888,263.888,0,0,1,25.483,16.462Q290.372,167.247,289.043,182.626Z" transform="translate(-31.106 -22.517)" fill="#100f0f"/>
          <path id="Path_221" data-name="Path 221" d="M284.251,224.342c11.868-29.132,24.2-54.769,36.62-73.086,0-.271.026-.4.041-.675q-11.372-15.961-24.343-30.957l2.438-27.671c14.254,20.863,25.826,42.191,36.288,62.864v11.755c-10,12.476-19.933,30.793-29.889,51.958-.026.312-.036.47-.061.782,10.171,2.9,20.239,5.913,30.277,8.893v16.728q-26.505-.649-53.072-1.191Q283.392,234.022,284.251,224.342Z" transform="translate(-21.713 -12.004)" fill="#100f0f"/>
        </g>
      </g>
    </g>
  </g>
</svg>
