<svg xmlns="http://www.w3.org/2000/svg" width="46.559" height="46.559" viewBox="0 0 46.559 46.559">
  <path id="Path_223" data-name="Path 223" d="M23.279,4.139c6.208,0,6.984,0,9.312.259a12,12,0,0,1,4.4.776,9.084,9.084,0,0,1,4.4,4.4,12,12,0,0,1,.776,4.4c0,2.328.259,3.1.259,9.312s0,6.984-.259,9.312a12,12,0,0,1-.776,4.4,9.084,9.084,0,0,1-4.4,4.4,12,12,0,0,1-4.4.776c-2.328,0-3.1.259-9.312.259s-6.984,0-9.312-.259a12,12,0,0,1-4.4-.776,9.084,9.084,0,0,1-4.4-4.4,12,12,0,0,1-.776-4.4c0-2.328-.259-3.1-.259-9.312s0-6.984.259-9.312a12,12,0,0,1,.776-4.4A9.29,9.29,0,0,1,6.984,6.984,4.373,4.373,0,0,1,9.57,5.173a12,12,0,0,1,4.4-.776c2.328-.259,3.1-.259,9.312-.259m0-4.139a76.426,76.426,0,0,0-9.57.259,15.969,15.969,0,0,0-5.69,1.035A10.126,10.126,0,0,0,3.88,3.88,10.126,10.126,0,0,0,1.293,8.018a11.785,11.785,0,0,0-1.035,5.69A76.426,76.426,0,0,0,0,23.279a76.426,76.426,0,0,0,.259,9.57,15.969,15.969,0,0,0,1.035,5.69A10.126,10.126,0,0,0,3.88,42.679a10.126,10.126,0,0,0,4.139,2.587,15.969,15.969,0,0,0,5.69,1.035,76.426,76.426,0,0,0,9.57.259,76.426,76.426,0,0,0,9.57-.259,15.969,15.969,0,0,0,5.69-1.035,10.852,10.852,0,0,0,6.725-6.725A15.968,15.968,0,0,0,46.3,32.85c0-2.587.259-3.363.259-9.57a76.426,76.426,0,0,0-.259-9.57,15.969,15.969,0,0,0-1.035-5.69A10.126,10.126,0,0,0,42.679,3.88,10.126,10.126,0,0,0,38.54,1.293,15.969,15.969,0,0,0,32.85.259,76.426,76.426,0,0,0,23.279,0m0,11.381a11.707,11.707,0,0,0-11.9,11.9,11.9,11.9,0,1,0,11.9-11.9m0,19.658a7.621,7.621,0,0,1-7.76-7.76,7.621,7.621,0,0,1,7.76-7.76,7.621,7.621,0,0,1,7.76,7.76,7.621,7.621,0,0,1-7.76,7.76M35.695,8.018a2.845,2.845,0,1,0,2.845,2.845,2.871,2.871,0,0,0-2.845-2.845" fill="#fff" fill-rule="evenodd"/>
</svg>
