<svg id="Layer_1" data-name="Layer 1" xmlns="http://www.w3.org/2000/svg" width="415" height="116" viewBox="0 0 415 116">
  <defs>
    <style>
      .cls-1, .cls-3 {
        fill: #fff;
      }

      .cls-1 {
        opacity: 0.5;
      }

      .cls-2 {
        opacity: 0.75;
      }
    </style>
  </defs>
  <title>Bucholdtzdk</title>
  <g>
    <path class="cls-1" d="M45.37,82.34A14.08,14.08,0,0,1,48,91.23q0,7.44-4.23,11.13A15.46,15.46,0,0,1,33.27,106H14.47a2,2,0,0,1-1.51-.65,2.33,2.33,0,0,1-.59-1.63V55.16A2.36,2.36,0,0,1,13,53.52a2,2,0,0,1,1.51-.64H33q5.88,0,9.19,3.49t3.33,9.57a14.3,14.3,0,0,1-1.82,7.21,10.63,10.63,0,0,1-5.18,4.64A12.74,12.74,0,0,1,45.37,82.34ZM38.76,59.75a8.34,8.34,0,0,0-6.33-2.39H16.84v19H32.43a8.33,8.33,0,0,0,6.19-2.65Q41,71.11,41,66.32A9.17,9.17,0,0,0,38.76,59.75ZM40.65,99c1.93-1.72,2.9-4.31,2.9-7.75s-1-6.15-3-7.82a11.49,11.49,0,0,0-7.66-2.51H16.84v20.66H33.06A11,11,0,0,0,40.65,99Z"/>
    <path class="cls-1" d="M85,68.1a2.37,2.37,0,0,1,.59,1.64V91.15q0,7.45-3.84,11.43t-10.63,4q-6.7,0-10.52-4T56.83,91.15V69.74a2.37,2.37,0,0,1,.59-1.64,2.09,2.09,0,0,1,3,0A2.33,2.33,0,0,1,61,69.74V91.15q0,5.47,2.66,8.32a9.71,9.71,0,0,0,7.48,2.85q4.89,0,7.59-2.85t2.69-8.32V69.74A2.33,2.33,0,0,1,82,68.1a2.09,2.09,0,0,1,3,0Z"/>
    <path class="cls-1" d="M118.17,67.12a12.85,12.85,0,0,1,4.55,2.16,3.84,3.84,0,0,1,1.71,3,2.47,2.47,0,0,1-.52,1.52,1.59,1.59,0,0,1-1.3.69,2.05,2.05,0,0,1-1.15-.31,5.62,5.62,0,0,1-1-.91,6.75,6.75,0,0,0-1.74-1.44,10.81,10.81,0,0,0-2.76-.88,19.47,19.47,0,0,0-3.67-.34,12.35,12.35,0,0,0-7,2.13,14.65,14.65,0,0,0-5,5.77,17.8,17.8,0,0,0-1.82,8,18.79,18.79,0,0,0,1.75,8.2,14.12,14.12,0,0,0,4.86,5.74,12.45,12.45,0,0,0,7.1,2.09,14.51,14.51,0,0,0,4-.46,14.22,14.22,0,0,0,3-1.29,15.27,15.27,0,0,0,1.67-1.37,7.71,7.71,0,0,1,1-.8,1.74,1.74,0,0,1,.91-.26,1.67,1.67,0,0,1,1.33.57,2.17,2.17,0,0,1,.49,1.48,4,4,0,0,1-1.68,2.77,14.22,14.22,0,0,1-4.61,2.55,19.22,19.22,0,0,1-6.5,1.06,16.19,16.19,0,0,1-9.09-2.62,17.45,17.45,0,0,1-6.19-7.25,23.93,23.93,0,0,1-2.2-10.41,22.78,22.78,0,0,1,2.24-10.14,18.33,18.33,0,0,1,6.29-7.33,16.25,16.25,0,0,1,9.3-2.73A22.08,22.08,0,0,1,118.17,67.12Z"/>
    <path class="cls-1" d="M158.19,71.22q3.09,4.29,3.08,11v21.49a2.33,2.33,0,0,1-.59,1.63,2.07,2.07,0,0,1-3,0,2.29,2.29,0,0,1-.59-1.63V82.27a13.64,13.64,0,0,0-2.17-8q-2.17-3.08-6.78-3.08a11,11,0,0,0-5.56,1.52,12.1,12.1,0,0,0-4.23,4.06,10.14,10.14,0,0,0-1.61,5.51v21.49a2.33,2.33,0,0,1-.59,1.63,2.07,2.07,0,0,1-3,0,2.33,2.33,0,0,1-.59-1.63V52.12a2.37,2.37,0,0,1,.59-1.64,2.09,2.09,0,0,1,3,0,2.37,2.37,0,0,1,.59,1.64V74.37A15.18,15.18,0,0,1,142,69a12.74,12.74,0,0,1,6.85-2.09Q155.12,66.93,158.19,71.22Z"/>
    <path class="cls-1" d="M202.94,96.93a18,18,0,0,1-6.37,7.25,16.82,16.82,0,0,1-18,0,17.9,17.9,0,0,1-6.36-7.25,24.25,24.25,0,0,1,0-20.66A18.08,18.08,0,0,1,178.54,69a16.61,16.61,0,0,1,18,0,18.18,18.18,0,0,1,6.37,7.29,24.35,24.35,0,0,1,0,20.66ZM199.3,78.39a14,14,0,0,0-4.86-5.73,12.09,12.09,0,0,0-6.88-2.09,12,12,0,0,0-6.86,2.09,14.3,14.3,0,0,0-4.85,5.73,18.46,18.46,0,0,0-1.79,8.21,18.23,18.23,0,0,0,1.79,8.12,14.33,14.33,0,0,0,4.85,5.74,12,12,0,0,0,6.86,2.09,12.29,12.29,0,0,0,6.88-2,13.8,13.8,0,0,0,4.86-5.7,20.11,20.11,0,0,0,0-16.41Z"/>
    <path class="cls-1" d="M217.86,105.39a2.07,2.07,0,0,1-3,0,2.33,2.33,0,0,1-.59-1.63V52.12a2.37,2.37,0,0,1,.59-1.64,2.09,2.09,0,0,1,3,0,2.33,2.33,0,0,1,.59,1.64v51.64A2.29,2.29,0,0,1,217.86,105.39Z"/>
    <path class="cls-1" d="M259.73,50.48a2.34,2.34,0,0,1,.6,1.64v51.64a2.29,2.29,0,0,1-.6,1.63,2.06,2.06,0,0,1-3,0,2.29,2.29,0,0,1-.6-1.63V98.44a15.89,15.89,0,0,1-5.2,5.93,13,13,0,0,1-7.66,2.43,14.26,14.26,0,0,1-8.35-2.62A17.85,17.85,0,0,1,229,96.93a25.86,25.86,0,0,1,0-20.74,17.78,17.78,0,0,1,5.91-7.25,14.07,14.07,0,0,1,8.28-2.62,13.87,13.87,0,0,1,7.62,2.24,14.74,14.74,0,0,1,5.31,5.81V52.12a2.34,2.34,0,0,1,.6-1.64,2.08,2.08,0,0,1,3,0Zm-9.5,50a13.61,13.61,0,0,0,4.54-5.74,19.91,19.91,0,0,0,1.64-8.24,19.52,19.52,0,0,0-1.64-8.13,13.89,13.89,0,0,0-4.54-5.73,11.28,11.28,0,0,0-13.08,0,14,14,0,0,0-4.54,5.73,21.15,21.15,0,0,0,0,16.33,14,14,0,0,0,4.54,5.74,11,11,0,0,0,6.54,2.09A11.13,11.13,0,0,0,250.23,100.5Z"/>
    <path class="cls-1" d="M278.29,71.64V97.08c0,1.92.33,3.22,1,3.91a3.44,3.44,0,0,0,2.59,1,3.66,3.66,0,0,0,1.05-.19,3.9,3.9,0,0,1,1-.19,1.34,1.34,0,0,1,1.08.57,2,2,0,0,1-.66,3.12,4.84,4.84,0,0,1-2.66.72,13.63,13.63,0,0,1-3.36-.38,5.37,5.37,0,0,1-2.83-2.28c-.91-1.26-1.36-3.29-1.36-6.07V71.64H269a2,2,0,0,1-1.44-.61,2.25,2.25,0,0,1,0-3,2,2,0,0,1,1.44-.61h5.1V59a2.33,2.33,0,0,1,.59-1.63,2.07,2.07,0,0,1,3,0,2.29,2.29,0,0,1,.59,1.63v8.43h7a1.77,1.77,0,0,1,1.36.69,2.27,2.27,0,0,1,.59,1.51,2,2,0,0,1-.56,1.49,1.87,1.87,0,0,1-1.39.57Z"/>
    <path class="cls-1" d="M318.84,102.39a2.34,2.34,0,0,1,0,3,1.88,1.88,0,0,1-1.47.61H294.65a1.79,1.79,0,0,1-1.47-.72,2.41,2.41,0,0,1-.55-1.48,2.66,2.66,0,0,1,.62-1.75L314,71H296.4a1.9,1.9,0,0,1-1.43-.61,2.21,2.21,0,0,1,0-3,1.9,1.9,0,0,1,1.43-.61h21.46a1.75,1.75,0,0,1,1.4.68,2.48,2.48,0,0,1,.56,1.6,3,3,0,0,1-.56,1.67L298.5,101.79h18.87A1.91,1.91,0,0,1,318.84,102.39Z"/>
    <path class="cls-1" d="M327.23,105.24a3.39,3.39,0,0,1-.63-2.16v-1.6a3.21,3.21,0,0,1,.63-2.12,2.21,2.21,0,0,1,1.82-.76h.49a2.2,2.2,0,0,1,1.81.76,3.21,3.21,0,0,1,.63,2.12v1.6a3.39,3.39,0,0,1-.63,2.16,2.17,2.17,0,0,1-1.81.8h-.49A2.18,2.18,0,0,1,327.23,105.24Z"/>
    <path class="cls-1" d="M371.66,50.48a2.37,2.37,0,0,1,.59,1.64v51.64a2.33,2.33,0,0,1-.59,1.63,2.07,2.07,0,0,1-3,0,2.29,2.29,0,0,1-.59-1.63V98.44a16,16,0,0,1-5.21,5.93,13,13,0,0,1-7.66,2.43,14.26,14.26,0,0,1-8.35-2.62,17.93,17.93,0,0,1-5.91-7.25,25.86,25.86,0,0,1,0-20.74,17.86,17.86,0,0,1,5.91-7.25,14.07,14.07,0,0,1,8.28-2.62,13.87,13.87,0,0,1,7.62,2.24,14.84,14.84,0,0,1,5.32,5.81V52.12a2.33,2.33,0,0,1,.59-1.64,2.09,2.09,0,0,1,3,0Zm-9.51,50a13.61,13.61,0,0,0,4.54-5.74,19.91,19.91,0,0,0,1.65-8.24,19.53,19.53,0,0,0-1.65-8.13,13.89,13.89,0,0,0-4.54-5.73,11.26,11.26,0,0,0-13.07,0,13.91,13.91,0,0,0-4.55,5.73,21.15,21.15,0,0,0,0,16.33,13.94,13.94,0,0,0,4.55,5.74,10.91,10.91,0,0,0,6.53,2.09A11.13,11.13,0,0,0,362.15,100.5Z"/>
    <path class="cls-1" d="M412.17,103.76a2.07,2.07,0,0,1-.74,1.63,2.15,2.15,0,0,1-1.36.65,1.87,1.87,0,0,1-1.54-.84L393.08,87.43l-5.24,4.86v11.47a2.29,2.29,0,0,1-.6,1.63,2.06,2.06,0,0,1-3,0,2.29,2.29,0,0,1-.6-1.63V52.12a2.34,2.34,0,0,1,.6-1.64,2.08,2.08,0,0,1,3,0,2.34,2.34,0,0,1,.6,1.64V86.75L408,67.84a1.76,1.76,0,0,1,2.87,0,2.33,2.33,0,0,1,.63,1.56,2.56,2.56,0,0,1-.77,1.74l-14.4,13.29L411.54,102A2.67,2.67,0,0,1,412.17,103.76Z"/>
  </g>
  <g class="cls-2">
    <path class="cls-3" d="M45.37,63.36A14.07,14.07,0,0,1,48,72.24c0,5-1.41,8.67-4.23,11.13a15.41,15.41,0,0,1-10.52,3.68H14.47A2,2,0,0,1,13,86.41a2.36,2.36,0,0,1-.59-1.64V36.17A2.33,2.33,0,0,1,13,34.54a2,2,0,0,1,1.51-.65H33q5.88,0,9.19,3.49T45.51,47a14.34,14.34,0,0,1-1.82,7.22,10.66,10.66,0,0,1-5.18,4.63A12.7,12.7,0,0,1,45.37,63.36Zm-6.61-22.6a8.34,8.34,0,0,0-6.33-2.39H16.84v19H32.43a8.34,8.34,0,0,0,6.19-2.66Q41,52.12,41,47.33A9.19,9.19,0,0,0,38.76,40.76ZM40.65,80q2.9-2.58,2.9-7.75t-3-7.82a11.48,11.48,0,0,0-7.66-2.5H16.84V82.57H33.06A11,11,0,0,0,40.65,80Z"/>
    <path class="cls-3" d="M85,49.12a2.33,2.33,0,0,1,.59,1.63V72.17q0,7.44-3.84,11.43t-10.63,4q-6.7,0-10.52-4T56.83,72.17V50.75a2.33,2.33,0,0,1,.59-1.63,2.07,2.07,0,0,1,3,0A2.29,2.29,0,0,1,61,50.75V72.17q0,5.46,2.66,8.31a9.71,9.71,0,0,0,7.48,2.85q4.89,0,7.59-2.85t2.69-8.31V50.75A2.29,2.29,0,0,1,82,49.12a2.07,2.07,0,0,1,3,0Z"/>
    <path class="cls-3" d="M118.17,48.13a12.85,12.85,0,0,1,4.55,2.16,3.85,3.85,0,0,1,1.71,3,2.52,2.52,0,0,1-.52,1.52,1.6,1.6,0,0,1-1.3.68,2,2,0,0,1-1.15-.3,6.14,6.14,0,0,1-1-.92,7,7,0,0,0-1.74-1.44,11.25,11.25,0,0,0-2.76-.87,18.68,18.68,0,0,0-3.67-.34,12.42,12.42,0,0,0-7,2.12,14.65,14.65,0,0,0-5,5.77,17.87,17.87,0,0,0-1.82,8.06,18.82,18.82,0,0,0,1.75,8.2A14.09,14.09,0,0,0,105,81.47a12.45,12.45,0,0,0,7.1,2.09,12.36,12.36,0,0,0,7-1.75,14.8,14.8,0,0,0,1.67-1.36,6.93,6.93,0,0,1,1-.8A1.77,1.77,0,0,1,124,80a2.19,2.19,0,0,1,.49,1.48,4,4,0,0,1-1.68,2.78,14.4,14.4,0,0,1-4.61,2.54,19,19,0,0,1-6.5,1.06,16.12,16.12,0,0,1-9.09-2.62,17.33,17.33,0,0,1-6.19-7.25,23.92,23.92,0,0,1-2.2-10.4A22.72,22.72,0,0,1,96.47,57.4a18.2,18.2,0,0,1,6.29-7.33,16.18,16.18,0,0,1,9.3-2.74A22.46,22.46,0,0,1,118.17,48.13Z"/>
    <path class="cls-3" d="M158.19,52.23q3.09,4.29,3.08,11.05V84.77a2.36,2.36,0,0,1-.59,1.64,2.09,2.09,0,0,1-3,0,2.31,2.31,0,0,1-.59-1.64V63.28a13.64,13.64,0,0,0-2.17-8q-2.17-3.08-6.78-3.08a11,11,0,0,0-5.56,1.52,12.13,12.13,0,0,0-4.23,4.07,10.11,10.11,0,0,0-1.61,5.5V84.77a2.36,2.36,0,0,1-.59,1.64,2.09,2.09,0,0,1-3,0,2.36,2.36,0,0,1-.59-1.64V33.13a2.33,2.33,0,0,1,.59-1.63,2.07,2.07,0,0,1,3,0,2.33,2.33,0,0,1,.59,1.63V55.38A15.26,15.26,0,0,1,142,50a12.83,12.83,0,0,1,6.85-2.09Q155.12,47.94,158.19,52.23Z"/>
    <path class="cls-3" d="M202.94,77.94a17.87,17.87,0,0,1-6.37,7.25,16.82,16.82,0,0,1-18,0,17.77,17.77,0,0,1-6.36-7.25,24.25,24.25,0,0,1,0-20.66A18.08,18.08,0,0,1,178.54,50a16.61,16.61,0,0,1,18,0,18.18,18.18,0,0,1,6.37,7.29,24.35,24.35,0,0,1,0,20.66ZM199.3,59.41a14.11,14.11,0,0,0-4.86-5.74,12.09,12.09,0,0,0-6.88-2.08,12,12,0,0,0-6.86,2.08,14.4,14.4,0,0,0-4.85,5.74,19.52,19.52,0,0,0,0,16.33,14.3,14.3,0,0,0,4.85,5.73,12,12,0,0,0,6.86,2.09,12.21,12.21,0,0,0,6.88-2,13.8,13.8,0,0,0,4.86-5.7,20.09,20.09,0,0,0,0-16.4Z"/>
    <path class="cls-3" d="M217.86,86.41a2.09,2.09,0,0,1-3,0,2.36,2.36,0,0,1-.59-1.64V33.13a2.33,2.33,0,0,1,.59-1.63,2.07,2.07,0,0,1,3,0,2.29,2.29,0,0,1,.59,1.63V84.77A2.31,2.31,0,0,1,217.86,86.41Z"/>
    <path class="cls-3" d="M259.73,31.5a2.29,2.29,0,0,1,.6,1.63V84.77a2.32,2.32,0,0,1-.6,1.64,2.08,2.08,0,0,1-3,0,2.32,2.32,0,0,1-.6-1.64V79.46a15.86,15.86,0,0,1-5.2,5.92,13,13,0,0,1-7.66,2.43,14.19,14.19,0,0,1-8.35-2.62A17.71,17.71,0,0,1,229,77.94a24.2,24.2,0,0,1-2.17-10.4A24,24,0,0,1,229,57.21,17.81,17.81,0,0,1,234.92,50a14.14,14.14,0,0,1,8.28-2.62,13.87,13.87,0,0,1,7.62,2.24,14.8,14.8,0,0,1,5.31,5.81V33.13a2.29,2.29,0,0,1,.6-1.63,2.06,2.06,0,0,1,3,0Zm-9.5,50a13.61,13.61,0,0,0,4.54-5.74,19.9,19.9,0,0,0,1.64-8.23,19.49,19.49,0,0,0-1.64-8.13,14,14,0,0,0-4.54-5.74,11.32,11.32,0,0,0-13.08,0,14.07,14.07,0,0,0-4.54,5.74A19.65,19.65,0,0,0,231,67.54a19.85,19.85,0,0,0,1.64,8.2,14,14,0,0,0,4.54,5.73,11.37,11.37,0,0,0,13.08,0Z"/>
    <path class="cls-3" d="M278.29,52.65V78.09c0,1.93.33,3.23,1,3.91a3.41,3.41,0,0,0,2.59,1,4,4,0,0,0,1.05-.19,3.49,3.49,0,0,1,1-.19,1.34,1.34,0,0,1,1.08.57,2,2,0,0,1-.66,3.11,4.84,4.84,0,0,1-2.66.72,13.17,13.17,0,0,1-3.36-.38,5.37,5.37,0,0,1-2.83-2.28c-.91-1.26-1.36-3.29-1.36-6.07V52.65H269a1.94,1.94,0,0,1-1.44-.61,2.1,2.1,0,0,1-.59-1.52,2.13,2.13,0,0,1,.59-1.52,2,2,0,0,1,1.44-.6h5.1V40a2.36,2.36,0,0,1,.59-1.64,2.09,2.09,0,0,1,3,0,2.31,2.31,0,0,1,.59,1.64V48.4h7a1.76,1.76,0,0,1,1.36.68,2.29,2.29,0,0,1,.59,1.52,2,2,0,0,1-.56,1.48,1.87,1.87,0,0,1-1.39.57Z"/>
    <path class="cls-3" d="M318.84,83.41a2.16,2.16,0,0,1,.56,1.52,2.19,2.19,0,0,1-.56,1.52,1.91,1.91,0,0,1-1.47.6H294.65a1.79,1.79,0,0,1-1.47-.72,2.39,2.39,0,0,1-.55-1.48,2.66,2.66,0,0,1,.62-1.75L314,52H296.4a1.94,1.94,0,0,1-1.43-.61,2.23,2.23,0,0,1,0-3,1.94,1.94,0,0,1,1.43-.61h21.46a1.73,1.73,0,0,1,1.4.69,2.43,2.43,0,0,1,.56,1.59,3,3,0,0,1-.56,1.67L298.5,82.8h18.87A1.88,1.88,0,0,1,318.84,83.41Z"/>
    <path class="cls-3" d="M327.23,86.25a3.39,3.39,0,0,1-.63-2.16V82.5a3.24,3.24,0,0,1,.63-2.13,2.21,2.21,0,0,1,1.82-.76h.49a2.2,2.2,0,0,1,1.81.76A3.24,3.24,0,0,1,332,82.5v1.59a3.39,3.39,0,0,1-.63,2.16,2.15,2.15,0,0,1-1.81.8h-.49A2.15,2.15,0,0,1,327.23,86.25Z"/>
    <path class="cls-3" d="M371.66,31.5a2.33,2.33,0,0,1,.59,1.63V84.77a2.36,2.36,0,0,1-.59,1.64,2.09,2.09,0,0,1-3,0,2.31,2.31,0,0,1-.59-1.64V79.46a16,16,0,0,1-5.21,5.92,13,13,0,0,1-7.66,2.43,14.19,14.19,0,0,1-8.35-2.62,17.79,17.79,0,0,1-5.91-7.25,25.84,25.84,0,0,1,0-20.73A17.89,17.89,0,0,1,346.84,50a14.14,14.14,0,0,1,8.28-2.62,13.87,13.87,0,0,1,7.62,2.24,14.9,14.9,0,0,1,5.32,5.81V33.13a2.29,2.29,0,0,1,.59-1.63,2.07,2.07,0,0,1,3,0Zm-9.51,50a13.61,13.61,0,0,0,4.54-5.74,19.9,19.9,0,0,0,1.65-8.23,19.49,19.49,0,0,0-1.65-8.13,14,14,0,0,0-4.54-5.74,11.31,11.31,0,0,0-13.07,0,14,14,0,0,0-4.55,5.74,19.65,19.65,0,0,0-1.64,8.13,19.85,19.85,0,0,0,1.64,8.2,13.91,13.91,0,0,0,4.55,5.73,10.91,10.91,0,0,0,6.53,2.09A11.06,11.06,0,0,0,362.15,81.51Z"/>
    <path class="cls-3" d="M412.17,84.77a2.1,2.1,0,0,1-.74,1.64,2.13,2.13,0,0,1-1.36.64,1.86,1.86,0,0,1-1.54-.83L393.08,68.45l-5.24,4.86V84.77a2.32,2.32,0,0,1-.6,1.64,2.08,2.08,0,0,1-3,0,2.32,2.32,0,0,1-.6-1.64V33.13a2.29,2.29,0,0,1,.6-1.63,2.06,2.06,0,0,1,3,0,2.29,2.29,0,0,1,.6,1.63V67.76L408,48.85a1.89,1.89,0,0,1,1.47-.76,1.85,1.85,0,0,1,1.4.72,2.34,2.34,0,0,1,.63,1.56,2.58,2.58,0,0,1-.77,1.75l-14.4,13.29L411.54,83A2.64,2.64,0,0,1,412.17,84.77Z"/>
  </g>
  <g>
    <path class="cls-3" d="M45.37,38A14.08,14.08,0,0,1,48,46.93q0,7.44-4.23,11.12a15.42,15.42,0,0,1-10.52,3.69H14.47A2,2,0,0,1,13,61.09a2.33,2.33,0,0,1-.59-1.63V10.85A2.35,2.35,0,0,1,13,9.22a2,2,0,0,1,1.51-.64H33q5.88,0,9.19,3.49t3.33,9.57a14.3,14.3,0,0,1-1.82,7.21,10.63,10.63,0,0,1-5.18,4.64A12.68,12.68,0,0,1,45.37,38ZM38.76,15.45a8.31,8.31,0,0,0-6.33-2.39H16.84V32H32.43a8.33,8.33,0,0,0,6.19-2.65Q41,26.81,41,22A9.16,9.16,0,0,0,38.76,15.45Zm1.89,39.23c1.93-1.72,2.9-4.31,2.9-7.75s-1-6.15-3-7.82a11.49,11.49,0,0,0-7.66-2.51H16.84V57.26H33.06A11,11,0,0,0,40.65,54.68Z"/>
    <path class="cls-3" d="M85,23.8a2.36,2.36,0,0,1,.59,1.64V46.85c0,5-1.28,8.77-3.84,11.43s-6.11,4-10.63,4-8-1.33-10.52-4-3.81-6.46-3.81-11.43V25.44a2.36,2.36,0,0,1,.59-1.64,2.09,2.09,0,0,1,3,0A2.31,2.31,0,0,1,61,25.44V46.85q0,5.48,2.66,8.32A9.71,9.71,0,0,0,71.16,58q4.89,0,7.59-2.85t2.69-8.32V25.44A2.31,2.31,0,0,1,82,23.8a2.09,2.09,0,0,1,3,0Z"/>
    <path class="cls-3" d="M118.17,22.82A12.85,12.85,0,0,1,122.72,25a3.84,3.84,0,0,1,1.71,3,2.47,2.47,0,0,1-.52,1.52,1.58,1.58,0,0,1-1.3.68,2,2,0,0,1-1.15-.3,5.62,5.62,0,0,1-1-.91,6.75,6.75,0,0,0-1.74-1.44,10.81,10.81,0,0,0-2.76-.88,19.47,19.47,0,0,0-3.67-.34,12.35,12.35,0,0,0-7,2.13,14.65,14.65,0,0,0-5,5.77,17.8,17.8,0,0,0-1.82,8,18.79,18.79,0,0,0,1.75,8.2A14.19,14.19,0,0,0,105,56.16a12.45,12.45,0,0,0,7.1,2.09,14.51,14.51,0,0,0,4-.46,14.22,14.22,0,0,0,3-1.29,15.27,15.27,0,0,0,1.67-1.37,7.71,7.71,0,0,1,1-.8,1.74,1.74,0,0,1,.91-.26,1.67,1.67,0,0,1,1.33.57,2.17,2.17,0,0,1,.49,1.48,4,4,0,0,1-1.68,2.77,14,14,0,0,1-4.61,2.54,19,19,0,0,1-6.5,1.07,16.19,16.19,0,0,1-9.09-2.62,17.42,17.42,0,0,1-6.19-7.26,23.85,23.85,0,0,1-2.2-10.4,22.78,22.78,0,0,1,2.24-10.14,18.33,18.33,0,0,1,6.29-7.33,16.25,16.25,0,0,1,9.3-2.73A22.08,22.08,0,0,1,118.17,22.82Z"/>
    <path class="cls-3" d="M158.19,26.92q3.09,4.29,3.08,11V59.46a2.33,2.33,0,0,1-.59,1.63,2.07,2.07,0,0,1-3,0,2.29,2.29,0,0,1-.59-1.63V38a13.64,13.64,0,0,0-2.17-8c-1.45-2.06-3.71-3.08-6.78-3.08a11,11,0,0,0-5.56,1.52,12.1,12.1,0,0,0-4.23,4.06A10.14,10.14,0,0,0,136.73,38V59.46a2.33,2.33,0,0,1-.59,1.63,2.07,2.07,0,0,1-3,0,2.33,2.33,0,0,1-.59-1.63V7.82a2.36,2.36,0,0,1,.59-1.64,2.09,2.09,0,0,1,3,0,2.36,2.36,0,0,1,.59,1.64V30.07A15.29,15.29,0,0,1,142,24.71a12.81,12.81,0,0,1,6.85-2.08Q155.12,22.63,158.19,26.92Z"/>
    <path class="cls-3" d="M202.94,52.62a18,18,0,0,1-6.37,7.26,16.82,16.82,0,0,1-18,0,17.86,17.86,0,0,1-6.36-7.26,22.78,22.78,0,0,1-2.31-10.32A22.83,22.83,0,0,1,172.18,32a18.08,18.08,0,0,1,6.36-7.29,16.61,16.61,0,0,1,18,0A18.18,18.18,0,0,1,202.94,32a23,23,0,0,1,2.3,10.33A22.91,22.91,0,0,1,202.94,52.62ZM199.3,34.09a14,14,0,0,0-4.86-5.73,12.09,12.09,0,0,0-6.88-2.09,12,12,0,0,0-6.86,2.09,14.3,14.3,0,0,0-4.85,5.73,18.43,18.43,0,0,0-1.79,8.21,18.23,18.23,0,0,0,1.79,8.12,14.4,14.4,0,0,0,4.85,5.74,12,12,0,0,0,6.86,2.09,12.22,12.22,0,0,0,6.88-2.06,13.71,13.71,0,0,0,4.86-5.69,18.82,18.82,0,0,0,1.75-8.2A18.84,18.84,0,0,0,199.3,34.09Z"/>
    <path class="cls-3" d="M217.86,61.09a2.07,2.07,0,0,1-3,0,2.33,2.33,0,0,1-.59-1.63V7.82a2.36,2.36,0,0,1,.59-1.64,2.09,2.09,0,0,1,3,0,2.31,2.31,0,0,1,.59,1.64V59.46A2.29,2.29,0,0,1,217.86,61.09Z"/>
    <path class="cls-3" d="M259.73,6.18a2.32,2.32,0,0,1,.6,1.64V59.46a2.29,2.29,0,0,1-.6,1.63,2.06,2.06,0,0,1-3,0,2.29,2.29,0,0,1-.6-1.63V54.14a15.89,15.89,0,0,1-5.2,5.93,13,13,0,0,1-7.66,2.43,14.26,14.26,0,0,1-8.35-2.62A17.81,17.81,0,0,1,229,52.62a24.13,24.13,0,0,1-2.17-10.4A24,24,0,0,1,229,31.89a17.78,17.78,0,0,1,5.91-7.25A14.07,14.07,0,0,1,243.2,22a13.87,13.87,0,0,1,7.62,2.24,14.74,14.74,0,0,1,5.31,5.81V7.82a2.32,2.32,0,0,1,.6-1.64,2.08,2.08,0,0,1,3,0Zm-9.5,50a13.52,13.52,0,0,0,4.54-5.73,19.94,19.94,0,0,0,1.64-8.24,19.49,19.49,0,0,0-1.64-8.13,13.89,13.89,0,0,0-4.54-5.73,11.28,11.28,0,0,0-13.08,0,14,14,0,0,0-4.54,5.73A19.65,19.65,0,0,0,231,42.22a19.81,19.81,0,0,0,1.64,8.2,14.07,14.07,0,0,0,4.54,5.74,11.34,11.34,0,0,0,13.08,0Z"/>
    <path class="cls-3" d="M278.29,27.33V52.78c0,1.92.33,3.22,1,3.91a3.44,3.44,0,0,0,2.59,1,3.66,3.66,0,0,0,1.05-.19,3.9,3.9,0,0,1,1-.19,1.34,1.34,0,0,1,1.08.57,2,2,0,0,1-.66,3.12,4.84,4.84,0,0,1-2.66.72,13.63,13.63,0,0,1-3.36-.38,5.37,5.37,0,0,1-2.83-2.28Q274.1,57.19,274.1,53V27.33H269a2,2,0,0,1-1.44-.6,2.25,2.25,0,0,1,0-3,2,2,0,0,1,1.44-.61h5.1V14.65a2.33,2.33,0,0,1,.59-1.63,2.07,2.07,0,0,1,3,0,2.29,2.29,0,0,1,.59,1.63v8.43h7a1.77,1.77,0,0,1,1.36.69,2.27,2.27,0,0,1,.59,1.51,2,2,0,0,1-.56,1.49,1.9,1.9,0,0,1-1.39.56Z"/>
    <path class="cls-3" d="M318.84,58.09a2.34,2.34,0,0,1,0,3,1.88,1.88,0,0,1-1.47.61H294.65a1.79,1.79,0,0,1-1.47-.72,2.41,2.41,0,0,1-.55-1.48,2.66,2.66,0,0,1,.62-1.75L314,26.65H296.4A1.9,1.9,0,0,1,295,26a2.21,2.21,0,0,1,0-3,1.9,1.9,0,0,1,1.43-.61h21.46a1.75,1.75,0,0,1,1.4.68,2.48,2.48,0,0,1,.56,1.6,3,3,0,0,1-.56,1.67L298.5,57.49h18.87A1.91,1.91,0,0,1,318.84,58.09Z"/>
    <path class="cls-3" d="M327.23,60.94a3.39,3.39,0,0,1-.63-2.16v-1.6a3.26,3.26,0,0,1,.63-2.13,2.23,2.23,0,0,1,1.82-.75h.49a2.23,2.23,0,0,1,1.81.75,3.26,3.26,0,0,1,.63,2.13v1.6a3.39,3.39,0,0,1-.63,2.16,2.17,2.17,0,0,1-1.81.8h-.49A2.18,2.18,0,0,1,327.23,60.94Z"/>
    <path class="cls-3" d="M371.66,6.18a2.36,2.36,0,0,1,.59,1.64V59.46a2.33,2.33,0,0,1-.59,1.63,2.07,2.07,0,0,1-3,0,2.29,2.29,0,0,1-.59-1.63V54.14a16,16,0,0,1-5.21,5.93,13,13,0,0,1-7.66,2.43,14.26,14.26,0,0,1-8.35-2.62,17.89,17.89,0,0,1-5.91-7.26,24.28,24.28,0,0,1-2.17-10.4,24.15,24.15,0,0,1,2.17-10.33,17.86,17.86,0,0,1,5.91-7.25A14.07,14.07,0,0,1,355.12,22a13.87,13.87,0,0,1,7.62,2.24,14.84,14.84,0,0,1,5.32,5.81V7.82a2.31,2.31,0,0,1,.59-1.64,2.09,2.09,0,0,1,3,0Zm-9.51,50a13.52,13.52,0,0,0,4.54-5.73,20,20,0,0,0,1.65-8.24,19.49,19.49,0,0,0-1.65-8.13,13.89,13.89,0,0,0-4.54-5.73,11.26,11.26,0,0,0-13.07,0,13.91,13.91,0,0,0-4.55,5.73,19.65,19.65,0,0,0-1.64,8.13,19.81,19.81,0,0,0,1.64,8.2,14,14,0,0,0,4.55,5.74,10.91,10.91,0,0,0,6.53,2.09A11.07,11.07,0,0,0,362.15,56.19Z"/>
    <path class="cls-3" d="M412.17,59.46a2.07,2.07,0,0,1-.74,1.63,2.15,2.15,0,0,1-1.36.65,1.87,1.87,0,0,1-1.54-.84L393.08,43.13,387.84,48V59.46a2.29,2.29,0,0,1-.6,1.63,2.06,2.06,0,0,1-3,0,2.29,2.29,0,0,1-.6-1.63V7.82a2.32,2.32,0,0,1,.6-1.64,2.08,2.08,0,0,1,3,0,2.32,2.32,0,0,1,.6,1.64V42.45L408,23.54a1.76,1.76,0,0,1,2.87,0,2.33,2.33,0,0,1,.63,1.56,2.56,2.56,0,0,1-.77,1.74l-14.4,13.29,15.17,17.62A2.67,2.67,0,0,1,412.17,59.46Z"/>
  </g>
</svg>
